<svg width="42" height="42" viewBox="0 0 42 42" fill="none" xmlns="http://www.w3.org/2000/svg">
<path d="M39.3235 20.7289C39.3235 30.7408 31.2069 38.8664 21.1859 38.8664C11.1649 38.8664 3.04834 30.7408 3.04834 20.7289C3.04834 10.7079 11.1649 2.59131 21.1859 2.59131C31.2069 2.59131 39.3235 10.7079 39.3235 20.7289Z" fill="#283544"/>
<path d="M29.6874 16.1391C29.5885 16.1968 27.2324 17.4153 27.2324 20.117C27.3434 23.1981 30.2057 24.2786 30.2547 24.2786C30.2057 24.3364 29.8226 25.7506 28.688 27.233C27.7876 28.51 26.7882 29.7975 25.2705 29.7975C23.8269 29.7975 23.3087 28.9464 21.643 28.9464C19.8542 28.9464 19.348 29.7975 17.9785 29.7975C16.4608 29.7975 15.3874 28.441 14.4379 27.176C13.2043 25.5204 12.1558 22.9222 12.1188 20.4275C12.0938 19.1055 12.3658 17.806 13.0562 16.7022C14.0307 15.1613 15.7704 14.1153 17.6703 14.0808C19.126 14.0351 20.4215 15.0121 21.3099 15.0121C22.1612 15.0121 23.7529 14.0808 25.5538 14.0808C26.3311 14.0815 28.404 14.2997 29.6874 16.1391ZM21.1868 13.8168C20.9276 12.6096 21.643 11.4024 22.3093 10.6323C23.1606 9.70096 24.5053 9.06885 25.6648 9.06885C25.7389 10.2761 25.2697 11.4601 24.4312 12.3224C23.6789 13.2537 22.3833 13.9548 21.1868 13.8168Z" fill="white"/>
</svg>
