<svg width="43" height="42" viewBox="0 0 43 42" fill="none" xmlns="http://www.w3.org/2000/svg">
<path d="M39.7825 21.1314C39.7825 19.6401 39.659 18.5519 39.3918 17.4233H22.0151V24.1543H32.2149C32.0093 25.8271 30.8988 28.3462 28.4311 30.0389L28.3965 30.2643L33.8907 34.4354L34.2713 34.4726C37.7672 31.3086 39.7825 26.6533 39.7825 21.1314Z" fill="#4285F4"/>
<path d="M22.014 38.8664C27.011 38.8664 31.206 37.2541 34.2702 34.4731L28.4299 30.0393C26.8671 31.1074 24.7695 31.8531 22.014 31.8531C17.1198 31.8531 12.9659 28.6891 11.4851 24.3159L11.2681 24.334L5.55518 28.6669L5.48047 28.8704C8.52392 34.7954 14.7754 38.8664 22.014 38.8664Z" fill="#34A853"/>
<path d="M11.4862 24.3158C11.0955 23.1873 10.8694 21.978 10.8694 20.7286C10.8694 19.479 11.0955 18.2699 11.4657 17.1414L11.4553 16.901L5.67081 12.4985L5.48155 12.5868C4.2272 15.0454 3.50745 17.8064 3.50745 20.7286C3.50745 23.6507 4.2272 26.4116 5.48155 28.8703L11.4862 24.3158Z" fill="#FBBC05"/>
<path d="M22.0141 9.60445C25.4894 9.60445 27.8337 11.0756 29.1704 12.305L34.3937 7.30707C31.1858 4.38492 27.0111 2.59131 22.0141 2.59131C14.7755 2.59131 8.52393 6.66215 5.48047 12.587L11.4646 17.1416C12.9659 12.7685 17.1199 9.60445 22.0141 9.60445Z" fill="#EB4335"/>
</svg>
