<svg width="18" height="18" viewBox="0 0 18 18" fill="none" xmlns="http://www.w3.org/2000/svg">
<path d="M13.1667 17.9582H4.83335C1.15835 17.9582 0.041687 16.8415 0.041687 13.1665V4.83317C0.041687 1.15817 1.15835 0.0415039 4.83335 0.0415039H6.08335C7.54169 0.0415039 8.00002 0.516504 8.58335 1.2915L9.83335 2.95817C10.1084 3.32484 10.15 3.37484 10.6667 3.37484H13.1667C16.8417 3.37484 17.9584 4.4915 17.9584 8.1665V13.1665C17.9584 16.8415 16.8417 17.9582 13.1667 17.9582ZM4.83335 1.2915C1.85002 1.2915 1.29169 1.85817 1.29169 4.83317V13.1665C1.29169 16.1415 1.85002 16.7082 4.83335 16.7082H13.1667C16.15 16.7082 16.7084 16.1415 16.7084 13.1665V8.1665C16.7084 5.1915 16.15 4.62484 13.1667 4.62484H10.6667C9.60002 4.62484 9.25002 4.25817 8.83335 3.70817L7.58335 2.0415C7.15002 1.4665 7.01669 1.2915 6.08335 1.2915H4.83335Z" fill="#C1C2C3"/>
</svg>
