<svg width="181" height="61" viewBox="0 0 181 61" fill="none" xmlns="http://www.w3.org/2000/svg">
<rect x="1.5" y="1.82812" width="178" height="58" rx="9.50001" fill="white"/>
<path d="M122.79 29.6306V33.0672H120.636V35.3208H122.79V42.9783C122.79 45.593 123.973 46.6389 126.949 46.6389C127.472 46.6389 127.97 46.5767 128.405 46.502V44.2732C128.032 44.3106 127.795 44.3355 127.384 44.3355C126.052 44.3355 125.467 43.7129 125.467 42.2935V35.3208H128.405V33.0672H125.467V29.6306H122.79Z" fill="black"/>
<path d="M135.986 46.8257C139.946 46.8257 142.374 44.1736 142.374 39.7783C142.374 35.408 139.933 32.7434 135.986 32.7434C132.027 32.7434 129.586 35.408 129.586 39.7783C129.586 44.1736 132.014 46.8257 135.986 46.8257ZM135.986 44.4475C133.658 44.4475 132.35 42.7417 132.35 39.7783C132.35 36.8399 133.658 35.1216 135.986 35.1216C138.302 35.1216 139.622 36.8399 139.622 39.7783C139.622 42.7293 138.302 44.4475 135.986 44.4475Z" fill="black"/>
<path d="M144.451 46.5642H147.128V38.5581C147.128 36.6531 148.56 35.3706 150.589 35.3706C151.063 35.3706 151.859 35.4578 152.084 35.5325V32.8928C151.797 32.8181 151.287 32.7808 150.888 32.7808C149.12 32.7808 147.614 33.752 147.228 35.0843H147.028V33.0049H144.451V46.5642Z" fill="black"/>
<path d="M158.731 35.022C160.71 35.022 162.005 36.4041 162.067 38.5332H155.219C155.369 36.4165 156.751 35.022 158.731 35.022ZM162.055 42.9036C161.557 43.9619 160.449 44.5471 158.83 44.5471C156.689 44.5471 155.306 43.0406 155.219 40.6624V40.513H164.794V39.5791C164.794 35.3208 162.516 32.7434 158.743 32.7434C154.92 32.7434 152.492 35.4951 152.492 39.8281C152.492 44.1612 154.871 46.8257 158.755 46.8257C161.856 46.8257 164.022 45.3316 164.632 42.9036H162.055Z" fill="black"/>
<path d="M105.235 41.557C105.441 44.8865 108.216 47.0159 112.345 47.0159C116.759 47.0159 119.521 44.7833 119.521 41.2214C119.521 38.421 117.946 36.8724 114.126 35.9819L112.074 35.4786C109.648 34.9108 108.667 34.1494 108.667 32.8201C108.667 31.1424 110.19 30.0455 112.474 30.0455C114.643 30.0455 116.14 31.1166 116.411 32.833H119.224C119.056 29.697 116.294 27.4902 112.513 27.4902C108.448 27.4902 105.738 29.697 105.738 33.0137C105.738 35.7496 107.274 37.3757 110.642 38.1629L113.042 38.7436C115.507 39.3244 116.591 40.1761 116.591 41.5957C116.591 43.2476 114.888 44.4478 112.565 44.4478C110.074 44.4478 108.345 43.325 108.1 41.557H105.235Z" fill="black"/>
<path d="M77.5036 32.7808C75.6608 32.7808 74.0671 33.7022 73.2453 35.2461H73.0461V33.0049H70.4687V51.0716H73.1457V44.5098H73.3574C74.0671 45.9417 75.5986 46.7884 77.5285 46.7884C80.9526 46.7884 83.1315 44.0865 83.1315 39.7783C83.1315 35.4702 80.9526 32.7808 77.5036 32.7808ZM76.7441 44.3853C74.5029 44.3853 73.0959 42.6172 73.0959 39.7908C73.0959 36.9519 74.5029 35.1839 76.7565 35.1839C79.0227 35.1839 80.3798 36.9146 80.3798 39.7783C80.3798 42.6546 79.0227 44.3853 76.7441 44.3853Z" fill="black"/>
<path d="M92.4988 32.7808C90.656 32.7808 89.0623 33.7022 88.2405 35.2461H88.0413V33.0049H85.4639V51.0716H88.1409V44.5098H88.3526C89.0623 45.9417 90.5938 46.7884 92.5237 46.7884C95.9478 46.7884 98.1267 44.0865 98.1267 39.7783C98.1267 35.4702 95.9478 32.7808 92.4988 32.7808ZM91.7393 44.3853C89.4981 44.3853 88.0911 42.6172 88.0911 39.7908C88.0911 36.9519 89.4981 35.1839 91.7517 35.1839C94.0178 35.1839 95.375 36.9146 95.375 39.7783C95.375 42.6546 94.0178 44.3853 91.7393 44.3853Z" fill="black"/>
<path d="M65.6657 46.5642H68.7372L62.0135 27.9419H58.9033L52.1797 46.5642H55.1479L56.8643 41.6215H63.9622L65.6657 46.5642ZM60.31 31.3231H60.5294L63.2266 39.1953H57.5999L60.31 31.3231Z" fill="black"/>
<path d="M53.9753 13.8961V22.8796H57.2189C59.8959 22.8796 61.446 21.2299 61.446 18.3599C61.446 15.5334 59.8834 13.8961 57.2189 13.8961H53.9753ZM55.3699 15.1661H57.0632C58.9247 15.1661 60.0266 16.349 60.0266 18.3785C60.0266 20.4392 58.9434 21.6096 57.0632 21.6096H55.3699V15.1661Z" fill="black"/>
<path d="M66.1937 23.0104C68.1734 23.0104 69.3874 21.6843 69.3874 19.4867C69.3874 17.3015 68.1672 15.9692 66.1937 15.9692C64.2139 15.9692 62.9937 17.3015 62.9937 19.4867C62.9937 21.6843 64.2077 23.0104 66.1937 23.0104ZM66.1937 21.8213C65.0295 21.8213 64.3758 20.9684 64.3758 19.4867C64.3758 18.0175 65.0295 17.1583 66.1937 17.1583C67.3516 17.1583 68.0115 18.0175 68.0115 19.4867C68.0115 20.9622 67.3516 21.8213 66.1937 21.8213Z" fill="black"/>
<path d="M79.7256 16.1H78.3871L77.1793 21.2734H77.0735L75.679 16.1H74.3965L73.002 21.2734H72.9024L71.6884 16.1H70.3312L72.1989 22.8796H73.5747L74.9693 17.8867H75.0751L76.4759 22.8796H77.8642L79.7256 16.1Z" fill="black"/>
<path d="M81.2671 22.8796H82.6056V18.9139C82.6056 17.8556 83.2343 17.1957 84.2242 17.1957C85.2141 17.1957 85.6872 17.7373 85.6872 18.8268V22.8796H87.0257V18.4906C87.0257 16.8782 86.1915 15.9692 84.6787 15.9692C83.6577 15.9692 82.9853 16.4237 82.6554 17.177H82.5558V16.1H81.2671V22.8796Z" fill="black"/>
<path d="M89.1337 22.8796H90.4722V13.4541H89.1337V22.8796Z" fill="black"/>
<path d="M95.5062 23.0104C97.486 23.0104 98.7 21.6843 98.7 19.4867C98.7 17.3015 97.4797 15.9692 95.5062 15.9692C93.5265 15.9692 92.3063 17.3015 92.3063 19.4867C92.3063 21.6843 93.5203 23.0104 95.5062 23.0104ZM95.5062 21.8213C94.342 21.8213 93.6884 20.9684 93.6884 19.4867C93.6884 18.0175 94.342 17.1583 95.5062 17.1583C96.6642 17.1583 97.3241 18.0175 97.3241 19.4867C97.3241 20.9622 96.6642 21.8213 95.5062 21.8213Z" fill="black"/>
<path d="M102.688 21.8649C101.96 21.8649 101.43 21.51 101.43 20.8999C101.43 20.3022 101.854 19.9847 102.788 19.9225L104.444 19.8167V20.3832C104.444 21.2236 103.697 21.8649 102.688 21.8649ZM102.346 22.9917C103.236 22.9917 103.977 22.6057 104.381 21.9271H104.487V22.8796H105.776V18.2478C105.776 16.8159 104.817 15.9692 103.118 15.9692C101.58 15.9692 100.484 16.7163 100.347 17.8805H101.642C101.792 17.4011 102.308 17.1272 103.055 17.1272C103.971 17.1272 104.444 17.5319 104.444 18.2478V18.833L102.607 18.9388C100.995 19.0385 100.086 19.7419 100.086 20.9622C100.086 22.201 101.038 22.9917 102.346 22.9917Z" fill="black"/>
<path d="M110.318 22.9917C111.252 22.9917 112.043 22.5497 112.447 21.8088H112.553V22.8796H113.836V13.4541H112.497V17.177H112.397C112.03 16.4299 111.246 15.9879 110.318 15.9879C108.606 15.9879 107.504 17.3451 107.504 19.4867C107.504 21.6345 108.594 22.9917 110.318 22.9917ZM110.698 17.1895C111.819 17.1895 112.522 18.0797 112.522 19.4929C112.522 20.9124 111.825 21.7902 110.698 21.7902C109.565 21.7902 108.886 20.9248 108.886 19.4867C108.886 18.061 109.571 17.1895 110.698 17.1895Z" fill="black"/>
<path d="M122.515 23.0104C124.495 23.0104 125.709 21.6843 125.709 19.4867C125.709 17.3015 124.489 15.9692 122.515 15.9692C120.536 15.9692 119.315 17.3015 119.315 19.4867C119.315 21.6843 120.529 23.0104 122.515 23.0104ZM122.515 21.8213C121.351 21.8213 120.697 20.9684 120.697 19.4867C120.697 18.0175 121.351 17.1583 122.515 17.1583C123.673 17.1583 124.333 18.0175 124.333 19.4867C124.333 20.9622 123.673 21.8213 122.515 21.8213Z" fill="black"/>
<path d="M127.481 22.8796H128.819V18.9139C128.819 17.8556 129.448 17.1957 130.438 17.1957C131.428 17.1957 131.901 17.7373 131.901 18.8268V22.8796H133.24V18.4906C133.24 16.8782 132.405 15.9692 130.892 15.9692C129.871 15.9692 129.199 16.4237 128.869 17.177H128.77V16.1H127.481V22.8796Z" fill="black"/>
<path d="M139.404 14.4128V16.1311H138.327V17.2579H139.404V21.0867C139.404 22.394 139.996 22.917 141.483 22.917C141.745 22.917 141.994 22.8859 142.212 22.8485V21.7341C142.025 21.7528 141.907 21.7653 141.701 21.7653C141.035 21.7653 140.743 21.454 140.743 20.7443V17.2579H142.212V16.1311H140.743V14.4128H139.404Z" fill="black"/>
<path d="M144.009 22.8796H145.347V18.9202C145.347 17.8929 145.957 17.2019 147.053 17.2019C147.999 17.2019 148.503 17.7498 148.503 18.833V22.8796H149.842V18.5031C149.842 16.8906 148.952 15.9755 147.507 15.9755C146.486 15.9755 145.77 16.4299 145.44 17.1895H145.335V13.4541H144.009V22.8796Z" fill="black"/>
<path d="M154.67 17.1085C155.66 17.1085 156.308 17.7996 156.339 18.8641H152.915C152.99 17.8058 153.681 17.1085 154.67 17.1085ZM156.333 21.0493C156.084 21.5785 155.53 21.8711 154.72 21.8711C153.649 21.8711 152.958 21.1178 152.915 19.9287V19.854H157.702V19.3871C157.702 17.2579 156.563 15.9692 154.677 15.9692C152.765 15.9692 151.551 17.3451 151.551 19.5116C151.551 21.6781 152.741 23.0104 154.683 23.0104C156.233 23.0104 157.316 22.2633 157.621 21.0493H156.333Z" fill="black"/>
<path d="M37.6501 31.2817C37.6826 28.7602 39.0367 26.3743 41.1849 25.0536C39.8297 23.1181 37.5598 21.8909 35.1982 21.8171C32.6793 21.5527 30.2374 23.3243 28.9538 23.3243C27.6454 23.3243 25.6692 21.8433 23.5411 21.8871C20.7672 21.9767 18.1812 23.5538 16.8317 25.9789C13.9307 31.0015 16.0946 38.3831 18.8735 42.443C20.2638 44.431 21.8888 46.6517 24.0149 46.573C26.0955 46.4867 26.8726 45.2462 29.384 45.2462C31.8722 45.2462 32.6012 46.573 34.7705 46.5229C37.0031 46.4867 38.4097 44.526 39.7513 42.5192C40.7503 41.1026 41.519 39.5371 42.0289 37.8804C39.4052 36.7707 37.6531 34.1304 37.6501 31.2817Z" fill="black"/>
<path d="M33.5526 19.1471C34.7699 17.6857 35.3696 15.8075 35.2243 13.9111C33.3646 14.1065 31.6467 14.9953 30.413 16.4005C29.2066 17.7735 28.5787 19.6188 28.6974 21.4426C30.5578 21.4618 32.3868 20.597 33.5526 19.1471Z" fill="black"/>
<rect x="1.5" y="1.82812" width="178" height="58" rx="9.50001" stroke="black" stroke-width="2"/>
</svg>
