<svg width="32" height="32" viewBox="0 0 32 32" fill="none" xmlns="http://www.w3.org/2000/svg">
<path d="M15.6666 14.0268C15.1351 14.0268 14.6943 13.586 14.6943 13.0545V8.73785C14.6943 8.20637 15.1351 7.76562 15.6666 7.76562C16.198 7.76562 16.6388 8.20637 16.6388 8.73785V13.0545C16.6388 13.599 16.198 14.0268 15.6666 14.0268Z" fill="black"/>
<path d="M15.6923 26.7696C12.3478 26.7696 9.01631 26.2381 5.84037 25.1752C4.66074 24.7863 3.76629 23.9437 3.3774 22.8807C2.98851 21.8178 3.11814 20.5992 3.75333 19.5363L5.39963 16.7881C5.76259 16.1788 6.08667 15.0381 6.08667 14.3251V11.6029C6.08667 6.30103 10.3904 1.99731 15.6923 1.99731C20.9941 1.99731 25.2978 6.30103 25.2978 11.6029V14.3251C25.2978 15.0251 25.6219 16.1788 25.9849 16.7881L27.6312 19.5363C28.2404 20.5474 28.3442 21.7529 27.9423 22.8548C27.5404 23.9567 26.659 24.7992 25.5441 25.1752C22.3682 26.2511 19.0367 26.7696 15.6923 26.7696ZM15.6923 3.95473C11.4663 3.95473 8.03112 7.38993 8.03112 11.6159V14.3381C8.03112 15.3881 7.6163 16.9048 7.07186 17.7992L5.42555 20.5603C5.08852 21.1178 5.01074 21.7141 5.20518 22.2326C5.39963 22.7511 5.84037 23.14 6.46259 23.3474C12.4256 25.3307 18.9849 25.3307 24.9478 23.3474C25.5053 23.1659 25.933 22.7511 26.1275 22.2066C26.3349 21.6622 26.2701 21.0659 25.9719 20.5603L24.3256 17.8122C23.7812 16.9177 23.3664 15.4011 23.3664 14.3511V11.6288C23.3534 7.38993 19.9182 3.95473 15.6923 3.95473Z" fill="black"/>
<path d="M15.6663 30.0748C14.2793 30.0748 12.9182 29.5044 11.933 28.5192C10.9478 27.534 10.3774 26.1729 10.3774 24.7859H12.3219C12.3219 25.6674 12.6849 26.5229 13.3071 27.1452C13.9293 27.7674 14.7849 28.1303 15.6663 28.1303C17.5071 28.1303 19.0108 26.6266 19.0108 24.7859H20.9553C20.9553 27.7026 18.583 30.0748 15.6663 30.0748Z" fill="black"/>
</svg>
