<svg width="28" height="28" viewBox="0 0 28 28" fill="none" xmlns="http://www.w3.org/2000/svg">
<path d="M17.4845 15.1038H9.35315C8.87688 15.1038 8.48193 14.7088 8.48193 14.2325C8.48193 13.7563 8.87688 13.3613 9.35315 13.3613H17.4845C17.9607 13.3613 18.3557 13.7563 18.3557 14.2325C18.3557 14.7088 17.9607 15.1038 17.4845 15.1038Z" fill="#12161C"/>
<path d="M14.441 19.7498H9.35315C8.87688 19.7498 8.48193 19.3548 8.48193 18.8785C8.48193 18.4023 8.87688 18.0073 9.35315 18.0073H14.441C14.9173 18.0073 15.3122 18.4023 15.3122 18.8785C15.3122 19.3548 14.9173 19.7498 14.441 19.7498Z" fill="#12161C"/>
<path d="M16.3228 7.9011H11.6764C10.5612 7.9011 8.48193 7.9011 8.48193 4.70665C8.48193 1.51221 10.5612 1.51221 11.6764 1.51221H16.3228C17.438 1.51221 19.5173 1.51221 19.5173 4.70665C19.5173 5.8218 19.5173 7.9011 16.3228 7.9011ZM11.6764 3.25463C10.5264 3.25463 10.2244 3.25463 10.2244 4.70665C10.2244 6.15867 10.5264 6.15867 11.6764 6.15867H16.3228C17.7749 6.15867 17.7749 5.85665 17.7749 4.70665C17.7749 3.25463 17.4728 3.25463 16.3228 3.25463H11.6764Z" fill="#12161C"/>
<path d="M17.4849 26.4872H10.5152C3.98694 26.4872 2.67432 23.4903 2.67432 18.6463V11.6766C2.67432 6.37965 4.59098 4.1145 9.30715 3.87056C9.77179 3.84733 10.2016 4.20743 10.2248 4.69531C10.2481 5.18318 9.87634 5.57813 9.40007 5.60137C6.10108 5.78723 4.41674 6.7746 4.41674 11.6766V18.6463C4.41674 22.9443 5.26472 24.7448 10.5152 24.7448H17.4849C22.7354 24.7448 23.5834 22.9443 23.5834 18.6463V11.6766C23.5834 6.7746 21.8991 5.78723 18.6001 5.60137C18.1238 5.57813 17.7521 5.15995 17.7753 4.68369C17.7986 4.20743 18.2167 3.83571 18.693 3.85894C23.4092 4.1145 25.3258 6.37965 25.3258 11.665V18.6347C25.3258 23.4903 24.0132 26.4872 17.4849 26.4872Z" fill="#12161C"/>
</svg>
