<svg width="60" height="27" viewBox="0 0 60 27" fill="none" xmlns="http://www.w3.org/2000/svg">
<path fill-rule="evenodd" clip-rule="evenodd" d="M11.0671 4.0742C10.3704 4.93324 9.25572 5.6108 8.14105 5.51401C8.00171 4.35248 8.54744 3.11836 9.18605 2.35611C9.88272 1.47287 11.1019 0.843709 12.0888 0.795312C12.2049 2.00523 11.7521 3.19096 11.0671 4.0742ZM12.0782 5.74324C11.0962 5.68434 10.2002 6.05098 9.47642 6.34712L9.47642 6.34712C9.01067 6.53769 8.61626 6.69907 8.31621 6.69907C7.97948 6.69907 7.56879 6.52906 7.10768 6.33818C6.50348 6.08806 5.8127 5.80211 5.08831 5.81583C3.42792 5.84003 1.88364 6.82006 1.03603 8.38086C-0.705643 11.5025 0.583193 16.1243 2.26681 18.6652C3.0912 19.9235 4.07814 21.3028 5.37859 21.2544C5.95071 21.2319 6.36226 21.0499 6.78817 20.8616C7.27851 20.6448 7.7879 20.4196 8.58326 20.4196C9.35105 20.4196 9.83816 20.6389 10.3058 20.8495C10.7504 21.0497 11.1773 21.242 11.8112 21.2302C13.158 21.206 14.0057 19.9719 14.8301 18.7136C15.7197 17.3631 16.1107 16.045 16.17 15.845L16.1769 15.8219C16.1755 15.8204 16.1645 15.8151 16.1451 15.8059C15.8477 15.664 13.5746 14.5796 13.5528 11.6718C13.5309 9.23117 15.3558 7.99457 15.6431 7.7999C15.6605 7.78805 15.6723 7.78007 15.6777 7.7759C14.5165 5.98522 12.7052 5.79163 12.0782 5.74324ZM21.4026 21.098V2.23538H28.1952C31.7017 2.23538 34.1517 4.75202 34.1517 8.43017C34.1517 12.1083 31.6553 14.6492 28.1023 14.6492H24.2125V21.098H21.4026ZM24.2112 4.7035H27.4507C29.889 4.7035 31.2824 6.05861 31.2824 8.44215C31.2824 10.8257 29.889 12.1929 27.4391 12.1929H24.2112V4.7035ZM43.4289 18.8349C42.6858 20.311 41.0486 21.2426 39.2837 21.2426C36.6712 21.2426 34.8483 19.6213 34.8483 17.1773C34.8483 14.7574 36.6132 13.366 39.8759 13.1603L43.3824 12.9425V11.902C43.3824 10.3654 42.4187 9.53058 40.7003 9.53058C39.2837 9.53058 38.2503 10.2928 38.0413 11.4543H35.5101C35.5914 9.01031 37.7975 7.23173 40.7815 7.23173C43.9978 7.23173 46.0878 8.98611 46.0878 11.7084V21.0974H43.4869V18.8349H43.4289ZM40.0379 19.0052C38.54 19.0052 37.5879 18.2551 37.5879 17.1057C37.5879 15.9199 38.5052 15.2303 40.2585 15.1214L43.3819 14.9157V15.9804C43.3819 17.7469 41.9421 19.0052 40.0379 19.0052ZM54.7137 21.8357C53.5874 25.1388 52.2985 26.2277 49.5583 26.2277C49.3493 26.2277 48.6526 26.2035 48.4901 26.1551V23.8925C48.6643 23.9167 49.0939 23.9409 49.3145 23.9409C50.5569 23.9409 51.2535 23.3965 51.6832 21.9809L51.9386 21.146L47.178 7.41343H50.1156L53.4248 18.5568H53.4829L56.7921 7.41343H59.6484L54.7137 21.8357Z" fill="black"/>
</svg>
