<svg width="40" height="41" viewBox="0 0 40 41" fill="none" xmlns="http://www.w3.org/2000/svg">
<path d="M19.9996 38.6168C18.9996 38.6168 18.0163 38.3835 17.2163 37.9335L9.33294 33.3835C6.06628 31.1835 5.84961 30.7835 5.84961 27.3335V19.0668C5.84961 15.6168 6.06628 15.2168 9.26628 13.0668L17.2329 8.4668C18.8163 7.55013 21.1996 7.55013 22.7829 8.4668L30.6663 13.0168C33.9329 15.2168 34.1496 15.6168 34.1496 19.0668V27.3335C34.1496 30.7835 33.9329 31.1835 30.7329 33.3335L22.7663 37.9335C21.9829 38.4001 20.9829 38.6168 19.9996 38.6168ZM19.9996 10.2835C19.4329 10.2835 18.8663 10.4001 18.4663 10.6335L10.5829 15.1835C8.34961 16.7001 8.34961 16.7001 8.34961 19.0668V27.3335C8.34961 29.7001 8.34961 29.7001 10.6663 31.2668L18.4829 35.7668C19.2829 36.2335 20.7329 36.2335 21.5329 35.7668L29.4163 31.2168C31.6496 29.7001 31.6496 29.7001 31.6496 27.3335V19.0668C31.6496 16.7001 31.6496 16.7001 29.3329 15.1335L21.5163 10.6335C21.1329 10.4001 20.5663 10.2835 19.9996 10.2835Z" fill="#F88F2D"/>
<path d="M29.1663 14.667C28.483 14.667 27.9163 14.1004 27.9163 13.417V9.03369C27.9163 6.40036 26.7997 5.28369 24.1663 5.28369H15.833C13.1997 5.28369 12.083 6.40036 12.083 9.03369V13.3004C12.083 13.9837 11.5163 14.5504 10.833 14.5504C10.1497 14.5504 9.58301 14.0004 9.58301 13.3004V9.03369C9.58301 5.00036 11.7997 2.78369 15.833 2.78369H24.1663C28.1997 2.78369 30.4163 5.00036 30.4163 9.03369V13.417C30.4163 14.1004 29.8497 14.667 29.1663 14.667Z" fill="#F88F2D"/>
<path d="M22.7167 30.0837C22.3667 30.0837 22.0001 30.0171 21.6334 29.8671L20.0001 29.2337L18.3667 29.8837C17.4834 30.2337 16.5834 30.1504 15.9167 29.6671C15.2501 29.1837 14.9001 28.3504 14.9501 27.4004L15.0501 25.6504L13.9334 24.3004C13.3334 23.5504 13.1334 22.6837 13.4001 21.8837C13.6501 21.1004 14.3334 20.5004 15.2501 20.2671L16.9501 19.8337L17.9001 18.3504C18.9167 16.7504 21.1001 16.7504 22.1167 18.3504L23.0667 19.8337L24.7667 20.2671C25.6834 20.5004 26.3667 21.1004 26.6167 21.8837C26.8667 22.6671 26.6667 23.5504 26.0667 24.2837L24.9501 25.6337L25.0501 27.3837C25.1001 28.3337 24.7501 29.1504 24.0834 29.6504C23.6834 29.9337 23.2167 30.0837 22.7167 30.0837ZM15.8667 22.7004L16.9834 24.0504C17.3667 24.5004 17.5834 25.2171 17.5501 25.8004L17.4501 27.5504L19.0834 26.9004C19.6334 26.6837 20.3667 26.6837 20.9167 26.9004L22.5501 27.5504L22.4501 25.8004C22.4167 25.2171 22.6334 24.5171 23.0167 24.0504L24.1334 22.7004L22.4334 22.2671C21.8667 22.1171 21.2667 21.6837 20.9501 21.2004L20.0167 19.7337L19.0667 21.2004C18.7501 21.7004 18.1501 22.1337 17.5834 22.2837L15.8667 22.7004Z" fill="#F88F2D"/>
</svg>
