<svg width="40" height="40" viewBox="0 0 40 40" fill="none" xmlns="http://www.w3.org/2000/svg">
<path d="M19.9996 37.9166C18.9996 37.9166 18.0163 37.6833 17.2163 37.2333L9.33294 32.6833C6.06628 30.4833 5.84961 30.0833 5.84961 26.6333V18.3666C5.84961 14.9166 6.06628 14.5166 9.26628 12.3666L17.2329 7.7666C18.8163 6.84993 21.1996 6.84993 22.7829 7.7666L30.6663 12.3166C33.9329 14.5166 34.1496 14.9166 34.1496 18.3666V26.6333C34.1496 30.0833 33.9329 30.4833 30.7329 32.6333L22.7663 37.2333C21.9829 37.6999 20.9829 37.9166 19.9996 37.9166ZM19.9996 9.58327C19.4329 9.58327 18.8663 9.69994 18.4663 9.93327L10.5829 14.4833C8.34961 15.9999 8.34961 15.9999 8.34961 18.3666V26.6333C8.34961 28.9999 8.34961 28.9999 10.6663 30.5666L18.4829 35.0666C19.2829 35.5333 20.7329 35.5333 21.5329 35.0666L29.4163 30.5166C31.6496 28.9999 31.6496 28.9999 31.6496 26.6333V18.3666C31.6496 15.9999 31.6496 15.9999 29.3329 14.4333L21.5163 9.93327C21.1329 9.69994 20.5663 9.58327 19.9996 9.58327Z" fill="#41AD4A"/>
<path d="M29.1663 13.9666C28.483 13.9666 27.9163 13.3999 27.9163 12.7166V8.33325C27.9163 5.69992 26.7997 4.58325 24.1663 4.58325H15.833C13.1997 4.58325 12.083 5.69992 12.083 8.33325V12.5999C12.083 13.2833 11.5163 13.8499 10.833 13.8499C10.1497 13.8499 9.58301 13.2999 9.58301 12.5999V8.33325C9.58301 4.29992 11.7997 2.08325 15.833 2.08325H24.1663C28.1997 2.08325 30.4163 4.29992 30.4163 8.33325V12.7166C30.4163 13.3999 29.8497 13.9666 29.1663 13.9666Z" fill="#41AD4A"/>
<path d="M22.7167 29.3833C22.3667 29.3833 22.0001 29.3166 21.6334 29.1666L20.0001 28.5333L18.3667 29.1833C17.4834 29.5333 16.5834 29.4499 15.9167 28.9666C15.2501 28.4833 14.9001 27.65 14.9501 26.7L15.0501 24.95L13.9334 23.6C13.3334 22.85 13.1334 21.9833 13.4001 21.1833C13.6501 20.4 14.3334 19.8 15.2501 19.5666L16.9501 19.1333L17.9001 17.65C18.9167 16.05 21.1001 16.05 22.1167 17.65L23.0667 19.1333L24.7667 19.5666C25.6834 19.8 26.3667 20.4 26.6167 21.1833C26.8667 21.9666 26.6667 22.8499 26.0667 23.5833L24.9501 24.9333L25.0501 26.6833C25.1001 27.6333 24.7501 28.45 24.0834 28.95C23.6834 29.2333 23.2167 29.3833 22.7167 29.3833ZM15.8667 22L16.9834 23.35C17.3667 23.8 17.5834 24.5166 17.5501 25.1L17.4501 26.85L19.0834 26.2C19.6334 25.9833 20.3667 25.9833 20.9167 26.2L22.5501 26.85L22.4501 25.1C22.4167 24.5166 22.6334 23.8166 23.0167 23.35L24.1334 22L22.4334 21.5666C21.8667 21.4166 21.2667 20.9833 20.9501 20.5L20.0167 19.0333L19.0667 20.5C18.7501 21 18.1501 21.4333 17.5834 21.5833L15.8667 22Z" fill="#41AD4A"/>
</svg>
