<svg width="40" height="40" viewBox="0 0 40 40" fill="none" xmlns="http://www.w3.org/2000/svg">
<path d="M13.333 9.58325C12.6497 9.58325 12.083 9.01659 12.083 8.33325V3.33325C12.083 2.64992 12.6497 2.08325 13.333 2.08325C14.0163 2.08325 14.583 2.64992 14.583 3.33325V8.33325C14.583 9.01659 14.0163 9.58325 13.333 9.58325Z" fill="#41AD4A"/>
<path d="M26.667 9.58325C25.9837 9.58325 25.417 9.01659 25.417 8.33325V3.33325C25.417 2.64992 25.9837 2.08325 26.667 2.08325C27.3503 2.08325 27.917 2.64992 27.917 3.33325V8.33325C27.917 9.01659 27.3503 9.58325 26.667 9.58325Z" fill="#41AD4A"/>
<path d="M14.1667 24.1666C13.95 24.1666 13.7333 24.1166 13.5333 24.0333C13.3167 23.95 13.15 23.8333 12.9833 23.6833C12.6833 23.3666 12.5 22.9499 12.5 22.4999C12.5 22.2833 12.55 22.0666 12.6333 21.8666C12.7167 21.6666 12.8333 21.4833 12.9833 21.3166C13.15 21.1666 13.3167 21.0499 13.5333 20.9666C14.1333 20.7166 14.8833 20.85 15.35 21.3166C15.65 21.6333 15.8333 22.0666 15.8333 22.4999C15.8333 22.5999 15.8167 22.7166 15.8 22.8333C15.7833 22.9333 15.75 23.0333 15.7 23.1333C15.6667 23.2333 15.6167 23.3333 15.55 23.4333C15.5 23.5166 15.4167 23.5999 15.35 23.6833C15.0333 23.9833 14.6 24.1666 14.1667 24.1666Z" fill="#41AD4A"/>
<path d="M19.9997 24.1667C19.783 24.1667 19.5663 24.1167 19.3663 24.0334C19.1497 23.9501 18.983 23.8334 18.8163 23.6834C18.5163 23.3667 18.333 22.95 18.333 22.5C18.333 22.2834 18.383 22.0667 18.4663 21.8667C18.5497 21.6667 18.6663 21.4834 18.8163 21.3167C18.983 21.1667 19.1497 21.05 19.3663 20.9667C19.9663 20.7 20.7163 20.85 21.183 21.3167C21.483 21.6334 21.6663 22.0667 21.6663 22.5C21.6663 22.6 21.6497 22.7167 21.633 22.8334C21.6163 22.9334 21.583 23.0334 21.533 23.1334C21.4997 23.2334 21.4497 23.3334 21.383 23.4334C21.333 23.5167 21.2497 23.6 21.183 23.6834C20.8663 23.9834 20.433 24.1667 19.9997 24.1667Z" fill="#41AD4A"/>
<path d="M25.8337 24.1667C25.617 24.1667 25.4003 24.1167 25.2003 24.0334C24.9837 23.9501 24.817 23.8334 24.6503 23.6834C24.5837 23.6 24.517 23.5167 24.4503 23.4334C24.3837 23.3334 24.3337 23.2334 24.3003 23.1334C24.2503 23.0334 24.217 22.9334 24.2003 22.8334C24.1837 22.7167 24.167 22.6 24.167 22.5C24.167 22.0667 24.3503 21.6334 24.6503 21.3167C24.817 21.1667 24.9837 21.05 25.2003 20.9667C25.817 20.7 26.5503 20.85 27.017 21.3167C27.317 21.6334 27.5003 22.0667 27.5003 22.5C27.5003 22.6 27.4837 22.7167 27.467 22.8334C27.4503 22.9334 27.417 23.0334 27.367 23.1334C27.3337 23.2334 27.2837 23.3334 27.217 23.4334C27.167 23.5167 27.0837 23.6 27.017 23.6834C26.7003 23.9834 26.267 24.1667 25.8337 24.1667Z" fill="#41AD4A"/>
<path d="M14.1667 30C13.95 30 13.7333 29.95 13.5333 29.8667C13.3333 29.7833 13.15 29.6666 12.9833 29.5166C12.6833 29.2 12.5 28.7667 12.5 28.3333C12.5 28.1167 12.55 27.9 12.6333 27.7C12.7167 27.4833 12.8333 27.3 12.9833 27.15C13.6 26.5333 14.7333 26.5333 15.35 27.15C15.65 27.4667 15.8333 27.9 15.8333 28.3333C15.8333 28.7667 15.65 29.2 15.35 29.5166C15.0333 29.8166 14.6 30 14.1667 30Z" fill="#41AD4A"/>
<path d="M19.9997 30C19.5663 30 19.133 29.8166 18.8163 29.5166C18.5163 29.2 18.333 28.7667 18.333 28.3333C18.333 28.1167 18.383 27.9 18.4663 27.7C18.5497 27.4833 18.6663 27.3 18.8163 27.15C19.433 26.5333 20.5663 26.5333 21.183 27.15C21.333 27.3 21.4497 27.4833 21.533 27.7C21.6163 27.9 21.6663 28.1167 21.6663 28.3333C21.6663 28.7667 21.483 29.2 21.183 29.5166C20.8663 29.8166 20.433 30 19.9997 30Z" fill="#41AD4A"/>
<path d="M25.8337 30.0001C25.4003 30.0001 24.967 29.8168 24.6503 29.5168C24.5003 29.3668 24.3837 29.1834 24.3003 28.9668C24.217 28.7668 24.167 28.5501 24.167 28.3334C24.167 28.1168 24.217 27.9001 24.3003 27.7001C24.3837 27.4834 24.5003 27.3001 24.6503 27.1501C25.0337 26.7668 25.617 26.5834 26.1503 26.7001C26.267 26.7167 26.367 26.7501 26.467 26.8001C26.567 26.8334 26.667 26.8835 26.767 26.9501C26.8503 27.0001 26.9337 27.0834 27.017 27.1501C27.317 27.4668 27.5003 27.9001 27.5003 28.3334C27.5003 28.7668 27.317 29.2001 27.017 29.5168C26.7003 29.8168 26.267 30.0001 25.8337 30.0001Z" fill="#41AD4A"/>
<path d="M34.1663 16.3999H5.83301C5.14967 16.3999 4.58301 15.8332 4.58301 15.1499C4.58301 14.4666 5.14967 13.8999 5.83301 13.8999H34.1663C34.8497 13.8999 35.4163 14.4666 35.4163 15.1499C35.4163 15.8332 34.8497 16.3999 34.1663 16.3999Z" fill="#41AD4A"/>
<path d="M26.6667 37.9166H13.3333C7.25 37.9166 3.75 34.4166 3.75 28.3333V14.1666C3.75 8.08325 7.25 4.58325 13.3333 4.58325H26.6667C32.75 4.58325 36.25 8.08325 36.25 14.1666V28.3333C36.25 34.4166 32.75 37.9166 26.6667 37.9166ZM13.3333 7.08325C8.56667 7.08325 6.25 9.39992 6.25 14.1666V28.3333C6.25 33.0999 8.56667 35.4166 13.3333 35.4166H26.6667C31.4333 35.4166 33.75 33.0999 33.75 28.3333V14.1666C33.75 9.39992 31.4333 7.08325 26.6667 7.08325H13.3333Z" fill="#41AD4A"/>
</svg>
