<svg width="32" height="32" viewBox="0 0 32 32" fill="none" xmlns="http://www.w3.org/2000/svg">
<path d="M5.23983 22.1732C4.9865 22.1732 4.73316 22.0798 4.53316 21.8798C4.1465 21.4932 4.1465 20.8532 4.53316 20.4665L20.4665 4.53316C20.8532 4.1465 21.4932 4.1465 21.8798 4.53316C22.2665 4.91983 22.2665 5.55983 21.8798 5.9465L5.9465 21.8932C5.75983 22.0798 5.49316 22.1732 5.23983 22.1732Z" fill="#41AD4A"/>
<path d="M14.7999 25.3735C14.5466 25.3735 14.2932 25.2802 14.0932 25.0802C13.7066 24.6935 13.7066 24.0535 14.0932 23.6669L15.6932 22.0669C16.0799 21.6802 16.7199 21.6802 17.1066 22.0669C17.4932 22.4535 17.4932 23.0935 17.1066 23.4802L15.5066 25.0802C15.3199 25.2669 15.0666 25.3735 14.7999 25.3735Z" fill="#41AD4A"/>
<path d="M18.3868 21.7864C18.1335 21.7864 17.8801 21.693 17.6801 21.493C17.2935 21.1064 17.2935 20.4664 17.6801 20.0797L20.8668 16.893C21.2535 16.5064 21.8935 16.5064 22.2801 16.893C22.6668 17.2797 22.6668 17.9197 22.2801 18.3064L19.0935 21.493C18.9068 21.6797 18.6401 21.7864 18.3868 21.7864Z" fill="#41AD4A"/>
<path d="M14.8 30.3334C13.4934 30.3334 12.1867 29.5334 10.6 27.9467L4.05338 21.4C0.866715 18.2134 0.880048 16.16 4.09338 12.9467L12.9467 4.09338C16.16 0.880048 18.2134 0.866715 21.4 4.05338L27.9467 10.6C31.1334 13.7867 31.12 15.84 27.9067 19.0534L19.0534 27.9067C17.44 29.5201 16.12 30.3334 14.8 30.3334ZM17.2 3.66672C16.5067 3.66672 15.6267 4.24005 14.36 5.50672L5.50671 14.36C4.24005 15.6267 3.66671 16.5067 3.66671 17.1867C3.66671 17.88 4.20005 18.72 5.46671 19.9867L12.0134 26.5334C13.28 27.8 14.1067 28.3334 14.8 28.3334C14.8 28.3334 14.8 28.3334 14.8134 28.3334C15.5067 28.3334 16.3734 27.76 17.64 26.4934L26.4934 17.64C27.76 16.3734 28.3334 15.4934 28.3334 14.8134C28.3334 14.12 27.8 13.28 26.5334 12.0134L19.9867 5.46671C18.7334 4.20005 17.8934 3.66672 17.2 3.66672Z" fill="#41AD4A"/>
<path d="M29.3332 30.333H2.6665C2.11984 30.333 1.6665 29.8797 1.6665 29.333C1.6665 28.7863 2.11984 28.333 2.6665 28.333H29.3332C29.8798 28.333 30.3332 28.7863 30.3332 29.333C30.3332 29.8797 29.8798 30.333 29.3332 30.333Z" fill="#41AD4A"/>
</svg>
