<svg width="32" height="32" viewBox="0 0 32 32" fill="none" xmlns="http://www.w3.org/2000/svg">
<path d="M25.3332 17.813H2.6665C2.11984 17.813 1.6665 17.3597 1.6665 16.813C1.6665 16.2663 2.11984 15.813 2.6665 15.813H25.3332C25.8798 15.813 26.3332 16.2663 26.3332 16.813C26.3332 17.3597 25.8798 17.813 25.3332 17.813Z" fill="#41AD4A"/>
<path d="M20.2931 29.0001H7.70654C3.13321 29.0001 1.6665 27.5467 1.6665 23.0267V13.7067C1.6665 10.1201 2.47987 8.00007 6.6132 7.76007C6.95987 7.74673 7.31988 7.7334 7.70654 7.7334H20.2931C24.8665 7.7334 26.3332 9.18673 26.3332 13.7067V23.2401C26.2798 27.6001 24.8131 29.0001 20.2931 29.0001ZM7.70654 9.7334C7.34654 9.7334 7.01321 9.74673 6.70654 9.76007C4.31988 9.90673 3.6665 10.4134 3.6665 13.7067V23.0267C3.6665 26.4401 4.22654 27.0001 7.70654 27.0001H20.2931C23.7331 27.0001 24.2932 26.4667 24.3332 23.2267V13.7067C24.3332 10.2934 23.7731 9.7334 20.2931 9.7334H7.70654Z" fill="#41AD4A"/>
<path d="M25.3332 24.24C25.0798 24.24 24.8265 24.1467 24.6532 23.9733C24.4532 23.7867 24.3332 23.52 24.3332 23.24V13.7067C24.3332 10.2933 23.7731 9.73333 20.2931 9.73333H7.70654C7.34654 9.73333 7.01321 9.74667 6.70654 9.76C6.43988 9.77333 6.17314 9.66667 5.97314 9.48C5.77314 9.29333 5.6665 9.02667 5.6665 8.74667C5.71984 4.4 7.18654 3 11.7065 3H24.2931C28.8665 3 30.3332 4.45333 30.3332 8.97333V18.2933C30.3332 21.88 29.5198 24 25.3865 24.24C25.3731 24.24 25.3465 24.24 25.3332 24.24ZM7.70654 7.73333H20.2931C24.8665 7.73333 26.3332 9.18666 26.3332 13.7067V22.1333C27.8798 21.8533 28.3332 21.0533 28.3332 18.2933V8.97333C28.3332 5.56 27.7731 5 24.2931 5H11.7065C8.66654 5 7.87988 5.41333 7.70654 7.73333Z" fill="#41AD4A"/>
<path d="M9.28019 24.7466H6.98682C6.44015 24.7466 5.98682 24.2932 5.98682 23.7466C5.98682 23.1999 6.44015 22.7466 6.98682 22.7466H9.28019C9.82686 22.7466 10.2802 23.1999 10.2802 23.7466C10.2802 24.2932 9.84019 24.7466 9.28019 24.7466Z" fill="#41AD4A"/>
<path d="M16.7332 24.7466H12.1465C11.5998 24.7466 11.1465 24.2932 11.1465 23.7466C11.1465 23.1999 11.5998 22.7466 12.1465 22.7466H16.7332C17.2798 22.7466 17.7332 23.1999 17.7332 23.7466C17.7332 24.2932 17.2932 24.7466 16.7332 24.7466Z" fill="#41AD4A"/>
</svg>
