<svg width="95" height="94" viewBox="0 0 95 94" fill="none" xmlns="http://www.w3.org/2000/svg">
<path d="M59.2336 88.9789H35.7666C14.529 88.9789 5.45508 79.905 5.45508 58.6674V35.2004C5.45508 13.9628 14.529 4.88892 35.7666 4.88892H55.3224C56.926 4.88892 58.2558 6.21871 58.2558 7.82229C58.2558 9.42587 56.926 10.7557 55.3224 10.7557H35.7666C17.7361 10.7557 11.3218 17.17 11.3218 35.2004V58.6674C11.3218 76.6979 17.7361 83.1122 35.7666 83.1122H59.2336C77.264 83.1122 83.6783 76.6979 83.6783 58.6674V39.1116C83.6783 37.508 85.0081 36.1782 86.6117 36.1782C88.2153 36.1782 89.5451 37.508 89.5451 39.1116V58.6674C89.5451 79.905 80.4712 88.9789 59.2336 88.9789Z" fill="#10B981"/>
<path d="M86.6123 42.0451H70.9677C57.5915 42.0451 52.3896 36.8432 52.3896 23.467V7.82237C52.3896 6.64903 53.0937 5.5539 54.1888 5.12367C55.2839 4.65433 56.5355 4.92811 57.3959 5.74946L88.6852 37.0388C89.5066 37.8601 89.7804 39.1508 89.311 40.2459C88.8417 41.341 87.7857 42.0451 86.6123 42.0451ZM58.2564 14.9016V23.467C58.2564 33.5578 60.8769 36.1783 70.9677 36.1783H79.5331L58.2564 14.9016Z" fill="#10B981"/>
<path d="M51.4111 53.7786H27.9441C26.3405 53.7786 25.0107 52.4488 25.0107 50.8452C25.0107 49.2417 26.3405 47.9119 27.9441 47.9119H51.4111C53.0147 47.9119 54.3445 49.2417 54.3445 50.8452C54.3445 52.4488 53.0147 53.7786 51.4111 53.7786Z" fill="#10B981"/>
<path d="M43.5888 69.4231H27.9441C26.3405 69.4231 25.0107 68.0933 25.0107 66.4898C25.0107 64.8862 26.3405 63.5564 27.9441 63.5564H43.5888C45.1923 63.5564 46.5221 64.8862 46.5221 66.4898C46.5221 68.0933 45.1923 69.4231 43.5888 69.4231Z" fill="#10B981"/>
</svg>
