<svg width="32" height="32" viewBox="0 0 32 32" fill="none" xmlns="http://www.w3.org/2000/svg">
<path d="M19.9998 30.3332H11.9998C4.75984 30.3332 1.6665 27.2398 1.6665 19.9998V11.9998C1.6665 4.75984 4.75984 1.6665 11.9998 1.6665H14.6665C15.2132 1.6665 15.6665 2.11984 15.6665 2.6665C15.6665 3.21317 15.2132 3.6665 14.6665 3.6665H11.9998C5.85317 3.6665 3.6665 5.85317 3.6665 11.9998V19.9998C3.6665 26.1465 5.85317 28.3332 11.9998 28.3332H19.9998C26.1465 28.3332 28.3332 26.1465 28.3332 19.9998V17.3332C28.3332 16.7865 28.7865 16.3332 29.3332 16.3332C29.8798 16.3332 30.3332 16.7865 30.3332 17.3332V19.9998C30.3332 27.2398 27.2398 30.3332 19.9998 30.3332Z" fill="#41AD4A"/>
<path d="M11.3333 23.5865C10.5199 23.5865 9.77328 23.2932 9.22661 22.7598C8.57328 22.1065 8.29328 21.1598 8.43994 20.1598L9.01328 16.1465C9.11994 15.3732 9.62661 14.3732 10.1733 13.8265L20.6799 3.31983C23.3333 0.666501 26.0266 0.666501 28.6799 3.31983C30.1333 4.77317 30.7866 6.25317 30.6533 7.73317C30.5333 8.93317 29.8933 10.1065 28.6799 11.3065L18.1733 21.8132C17.6266 22.3598 16.6266 22.8665 15.8533 22.9732L11.8399 23.5465C11.6666 23.5865 11.4933 23.5865 11.3333 23.5865ZM22.0933 4.73317L11.5866 15.2398C11.3333 15.4932 11.0399 16.0798 10.9866 16.4265L10.4133 20.4398C10.3599 20.8265 10.4399 21.1465 10.6399 21.3465C10.8399 21.5465 11.1599 21.6265 11.5466 21.5732L15.5599 20.9998C15.9066 20.9465 16.5066 20.6532 16.7466 20.3998L27.2533 9.89317C28.1199 9.0265 28.5733 8.25317 28.6399 7.53317C28.7199 6.6665 28.2666 5.7465 27.2533 4.71983C25.1199 2.5865 23.6533 3.1865 22.0933 4.73317Z" fill="#41AD4A"/>
<path d="M26.4666 13.1064C26.3732 13.1064 26.2799 13.093 26.1999 13.0664C22.6932 12.0797 19.9066 9.29304 18.9199 5.78638C18.7732 5.25304 19.0799 4.70638 19.6132 4.54638C20.1466 4.39971 20.6932 4.70638 20.8399 5.23971C21.6399 8.07971 23.8932 10.333 26.7332 11.133C27.2666 11.2797 27.5732 11.8397 27.4266 12.373C27.3066 12.8264 26.9066 13.1064 26.4666 13.1064Z" fill="#41AD4A"/>
</svg>
