<svg width="32" height="32" viewBox="0 0 32 32" fill="none" xmlns="http://www.w3.org/2000/svg">
<path d="M22.6665 30.3332H9.33317C3.45317 30.3332 1.6665 28.5465 1.6665 22.6665V9.33317C1.6665 3.45317 3.45317 1.6665 9.33317 1.6665H11.3332C13.6665 1.6665 14.3998 2.4265 15.3332 3.6665L17.3332 6.33317C17.7732 6.91984 17.8398 6.99984 18.6665 6.99984H22.6665C28.5465 6.99984 30.3332 8.7865 30.3332 14.6665V22.6665C30.3332 28.5465 28.5465 30.3332 22.6665 30.3332ZM9.33317 3.6665C4.55984 3.6665 3.6665 4.57317 3.6665 9.33317V22.6665C3.6665 27.4265 4.55984 28.3332 9.33317 28.3332H22.6665C27.4398 28.3332 28.3332 27.4265 28.3332 22.6665V14.6665C28.3332 9.9065 27.4398 8.99984 22.6665 8.99984H18.6665C16.9598 8.99984 16.3998 8.41317 15.7332 7.53317L13.7332 4.8665C13.0398 3.9465 12.8265 3.6665 11.3332 3.6665H9.33317Z" fill="#41AD4A"/>
<path d="M26.6665 9.5065C26.1198 9.5065 25.6665 9.05317 25.6665 8.5065V6.6665C25.6665 4.55984 24.7732 3.6665 22.6665 3.6665H10.6665C10.1198 3.6665 9.6665 3.21317 9.6665 2.6665C9.6665 2.11984 10.1198 1.6665 10.6665 1.6665H22.6665C25.8932 1.6665 27.6665 3.43984 27.6665 6.6665V8.5065C27.6665 9.05317 27.2132 9.5065 26.6665 9.5065Z" fill="#41AD4A"/>
</svg>
