<svg width="32" height="32" viewBox="0 0 32 32" fill="none" xmlns="http://www.w3.org/2000/svg">
<path d="M12.0002 14.3333C9.9735 14.3333 8.3335 12.6933 8.3335 10.6667C8.3335 8.64 9.9735 7 12.0002 7C14.0268 7 15.6668 8.64 15.6668 10.6667C15.6668 12.6933 14.0268 14.3333 12.0002 14.3333ZM12.0002 9C11.0802 9 10.3335 9.74667 10.3335 10.6667C10.3335 11.5867 11.0802 12.3333 12.0002 12.3333C12.9202 12.3333 13.6668 11.5867 13.6668 10.6667C13.6668 9.74667 12.9202 9 12.0002 9Z" fill="#41AD4A"/>
<path d="M19.9998 30.3332H11.9998C4.75984 30.3332 1.6665 27.2398 1.6665 19.9998V11.9998C1.6665 4.75984 4.75984 1.6665 11.9998 1.6665H17.3332C17.8798 1.6665 18.3332 2.11984 18.3332 2.6665C18.3332 3.21317 17.8798 3.6665 17.3332 3.6665H11.9998C5.85317 3.6665 3.6665 5.85317 3.6665 11.9998V19.9998C3.6665 26.1465 5.85317 28.3332 11.9998 28.3332H19.9998C26.1465 28.3332 28.3332 26.1465 28.3332 19.9998V13.3332C28.3332 12.7865 28.7865 12.3332 29.3332 12.3332C29.8798 12.3332 30.3332 12.7865 30.3332 13.3332V19.9998C30.3332 27.2398 27.2398 30.3332 19.9998 30.3332Z" fill="#41AD4A"/>
<path d="M20.8932 13.0001C20.3732 13.0001 19.8932 12.8134 19.5465 12.4534C19.1332 12.0401 18.9332 11.4267 19.0265 10.8001L19.2932 8.94675C19.3598 8.48008 19.6398 7.90675 19.9865 7.57341L24.8265 2.73341C26.7598 0.800081 28.4398 1.90675 29.2665 2.73341C30.0532 3.52008 30.4132 4.34675 30.3332 5.20008C30.2665 5.88008 29.9198 6.53341 29.2665 7.17341L24.4265 12.0134C24.0932 12.3467 23.5198 12.6267 23.0532 12.7067L21.1998 12.9734C21.0932 13.0001 20.9865 13.0001 20.8932 13.0001ZM26.2265 4.16008L21.3865 9.00008C21.3465 9.04008 21.2798 9.18675 21.2665 9.25341L21.0132 10.9867L22.7598 10.7467C22.8132 10.7334 22.9598 10.6667 23.0132 10.6134L27.8532 5.77341C28.1465 5.48008 28.3198 5.21341 28.3332 5.01341C28.3598 4.73341 28.0798 4.38675 27.8532 4.16008C27.1598 3.46675 26.8398 3.54675 26.2265 4.16008Z" fill="#41AD4A"/>
<path d="M27.8665 8.17342C27.7732 8.17342 27.6799 8.16009 27.5999 8.13342C25.8132 7.62676 24.3865 6.20009 23.8799 4.41342C23.7332 3.88009 24.0399 3.33342 24.5732 3.18676C25.1065 3.04009 25.6532 3.34676 25.7999 3.88009C26.1199 5.00009 27.0132 5.90676 28.1465 6.22676C28.6799 6.37342 28.9865 6.93342 28.8399 7.45342C28.6932 7.88009 28.2932 8.17342 27.8665 8.17342Z" fill="#41AD4A"/>
<path d="M3.56007 26.2668C3.24007 26.2668 2.92007 26.1068 2.7334 25.8268C2.42673 25.3735 2.54673 24.7468 3.00007 24.4402L9.5734 20.0268C11.0134 19.0668 13.0001 19.1735 14.3067 20.2802L14.7467 20.6668C15.4134 21.2402 16.5467 21.2402 17.2001 20.6668L22.7467 15.9068C24.1601 14.6935 26.3867 14.6935 27.8134 15.9068L29.9867 17.7735C30.4001 18.1335 30.4534 18.7602 30.0934 19.1868C29.7334 19.6002 29.1067 19.6535 28.6801 19.2935L26.5067 17.4268C25.8401 16.8535 24.7067 16.8535 24.0534 17.4268L18.5067 22.1868C17.0934 23.4002 14.8667 23.4002 13.4401 22.1868L13.0001 21.8002C12.3867 21.2802 11.3734 21.2268 10.6934 21.6935L4.1334 26.1068C3.94673 26.2135 3.74673 26.2668 3.56007 26.2668Z" fill="#41AD4A"/>
</svg>
