<svg width="95" height="94" viewBox="0 0 95 94" fill="none" xmlns="http://www.w3.org/2000/svg">
<path d="M59.2336 88.9789H35.7666C14.529 88.9789 5.45508 79.905 5.45508 58.6674V35.2004C5.45508 13.9628 14.529 4.88892 35.7666 4.88892H59.2336C80.4712 4.88892 89.5451 13.9628 89.5451 35.2004V58.6674C89.5451 79.905 80.4712 88.9789 59.2336 88.9789ZM35.7666 10.7557C17.7361 10.7557 11.3218 17.17 11.3218 35.2004V58.6674C11.3218 76.6979 17.7361 83.1122 35.7666 83.1122H59.2336C77.264 83.1122 83.6783 76.6979 83.6783 58.6674V35.2004C83.6783 17.17 77.264 10.7557 59.2336 10.7557H35.7666Z" fill="#F88F2D"/>
<path d="M35.7664 42.0451C29.8215 42.0451 25.0107 37.2344 25.0107 31.2894C25.0107 25.3444 29.8215 20.5337 35.7664 20.5337C41.7114 20.5337 46.5221 25.3444 46.5221 31.2894C46.5221 37.2344 41.7114 42.0451 35.7664 42.0451ZM35.7664 26.4004C33.0677 26.4004 30.8775 28.5907 30.8775 31.2894C30.8775 33.9881 33.0677 36.1783 35.7664 36.1783C38.4651 36.1783 40.6554 33.9881 40.6554 31.2894C40.6554 28.5907 38.4651 26.4004 35.7664 26.4004Z" fill="#F88F2D"/>
<path d="M11.0087 77.0498C10.0701 77.0498 9.13137 76.5805 8.58381 75.7591C7.68424 74.4294 8.03625 72.5911 9.40515 71.6915L28.6872 58.7456C32.9112 55.8904 38.7389 56.2424 42.5718 59.4887L43.8625 60.6229C45.8181 62.3047 49.1426 62.3047 51.059 60.6229L67.3295 46.6601C71.4753 43.1009 78.007 43.1009 82.1919 46.6601L88.5671 52.1357C89.7796 53.1917 89.936 55.03 88.88 56.2816C87.824 57.494 85.9857 57.6505 84.7342 56.5944L78.359 51.1188C76.4034 49.437 73.0789 49.437 71.1233 51.1188L54.8529 65.0817C50.707 68.6408 44.1754 68.6408 39.9904 65.0817L38.6998 63.9474C36.9006 62.4221 33.9281 62.2656 31.9335 63.6345L12.6514 76.5805C12.143 76.8934 11.5563 77.0498 11.0087 77.0498Z" fill="#F88F2D"/>
</svg>
