<svg width="215" height="216" viewBox="0 0 215 216" fill="none" xmlns="http://www.w3.org/2000/svg">
<path d="M215 108.364C215 167.734 166.871 215.864 107.5 215.864C48.1294 215.864 0 167.734 0 108.364C0 48.9929 48.1294 0.863525 107.5 0.863525C166.871 0.863525 215 48.9929 215 108.364ZM38.7 108.364C38.7 146.361 69.5028 177.164 107.5 177.164C145.497 177.164 176.3 146.361 176.3 108.364C176.3 70.3663 145.497 39.5635 107.5 39.5635C69.5028 39.5635 38.7 70.3663 38.7 108.364Z" fill="url(#paint0_linear_11515_8380)"/>
<path d="M107.5 20.2135C107.5 9.52682 116.232 0.687049 126.746 2.60035C138.768 4.78816 150.377 9.0186 161.055 15.1534C177.35 24.5162 190.907 37.9876 200.372 54.224C209.837 70.4605 214.88 88.8946 214.998 107.688C215.116 126.482 210.305 144.978 201.045 161.332C191.785 177.686 178.399 191.326 162.222 200.893C146.045 210.46 127.643 215.619 108.851 215.855C90.0585 216.091 71.5326 211.397 55.1206 202.239C44.3669 196.239 34.7671 188.46 26.7061 179.276C19.6566 171.244 22.7449 159.209 31.909 153.711C41.0732 148.214 52.8188 151.464 60.6441 158.742C64.6665 162.483 69.1394 165.745 73.9772 168.444C84.4808 174.305 96.3374 177.309 108.365 177.158C120.392 177.007 132.169 173.705 142.522 167.583C152.875 161.46 161.442 152.73 167.369 142.263C173.295 131.797 176.374 119.959 176.299 107.931C176.223 95.9034 172.996 84.1056 166.938 73.7143C160.88 63.3229 152.204 54.7013 141.775 48.7091C136.972 45.9492 131.874 43.7915 126.596 42.2668C116.329 39.3006 107.5 30.9002 107.5 20.2135Z" fill="#41AD4A"/>
<path d="M86.8936 96.3767H87.7139V100.869H87.3818C85.8975 100.869 84.5758 101.09 83.417 101.533C82.2581 101.976 81.2751 102.607 80.4678 103.427C79.6735 104.235 79.0615 105.211 78.6318 106.357C78.2152 107.503 78.0068 108.786 78.0068 110.205V114.931C78.0068 116.286 78.1826 117.425 78.5342 118.349C78.8988 119.261 79.4001 119.944 80.0381 120.4C80.6891 120.856 81.4443 121.084 82.3037 121.084C83.124 121.084 83.8402 120.856 84.4521 120.4C85.0641 119.931 85.5329 119.3 85.8584 118.506C86.1969 117.711 86.3662 116.806 86.3662 115.791C86.3662 114.762 86.1969 113.851 85.8584 113.056C85.5329 112.249 85.0576 111.618 84.4326 111.162C83.8076 110.706 83.0524 110.478 82.167 110.478C81.2816 110.478 80.5003 110.687 79.8232 111.103C79.1592 111.507 78.6383 112.028 78.2607 112.666C77.8831 113.304 77.6813 113.974 77.6553 114.677L75.9561 113.584C76.0212 112.256 76.3792 111.025 77.0303 109.892C77.6813 108.747 78.5928 107.829 79.7646 107.138C80.9365 106.448 82.3232 106.103 83.9248 106.103C85.7087 106.103 87.1995 106.546 88.3975 107.431C89.5954 108.304 90.4938 109.469 91.0928 110.927C91.6917 112.386 91.9912 113.987 91.9912 115.732C91.9912 117.568 91.5941 119.228 90.7998 120.713C90.0186 122.184 88.9118 123.349 87.4795 124.209C86.0472 125.068 84.361 125.498 82.4209 125.498C80.9105 125.498 79.5368 125.224 78.2998 124.677C77.0758 124.118 76.0212 123.336 75.1357 122.334C74.2503 121.331 73.5667 120.14 73.085 118.76C72.6162 117.379 72.3818 115.869 72.3818 114.228V112.041C72.3818 109.749 72.7139 107.653 73.3779 105.752C74.055 103.838 75.0251 102.184 76.2881 100.791C77.5511 99.3845 79.0745 98.2973 80.8584 97.5291C82.6423 96.7608 84.654 96.3767 86.8936 96.3767ZM114.491 108.388V113.31C114.491 116.162 114.088 118.486 113.28 120.283C112.486 122.08 111.366 123.401 109.921 124.248C108.489 125.081 106.815 125.498 104.901 125.498C102.987 125.498 101.308 125.081 99.8623 124.248C98.417 123.401 97.2842 122.08 96.4639 120.283C95.6566 118.486 95.2529 116.162 95.2529 113.31V108.388C95.2529 105.537 95.6566 103.219 96.4639 101.435C97.2712 99.6514 98.391 98.3494 99.8232 97.5291C101.269 96.6957 102.948 96.2791 104.862 96.2791C106.776 96.2791 108.456 96.6957 109.901 97.5291C111.347 98.3494 112.473 99.6514 113.28 101.435C114.088 103.219 114.491 105.537 114.491 108.388ZM108.847 114.052V107.627C108.847 105.921 108.69 104.56 108.378 103.545C108.078 102.516 107.629 101.78 107.03 101.338C106.431 100.895 105.709 100.674 104.862 100.674C104.029 100.674 103.313 100.895 102.714 101.338C102.128 101.78 101.679 102.516 101.366 103.545C101.054 104.56 100.897 105.921 100.897 107.627V114.052C100.897 115.771 101.054 117.151 101.366 118.193C101.679 119.222 102.134 119.964 102.733 120.42C103.345 120.875 104.068 121.103 104.901 121.103C105.735 121.103 106.444 120.875 107.03 120.42C107.629 119.964 108.078 119.222 108.378 118.193C108.69 117.151 108.847 115.771 108.847 114.052ZM118.241 103.642V102.138C118.241 101.058 118.476 100.075 118.944 99.1892C119.413 98.3038 120.103 97.5942 121.015 97.0603C121.926 96.5264 123.052 96.2595 124.394 96.2595C125.748 96.2595 126.881 96.5264 127.792 97.0603C128.716 97.5942 129.407 98.3038 129.862 99.1892C130.331 100.075 130.565 101.058 130.565 102.138V103.642C130.565 104.697 130.331 105.667 129.862 106.552C129.407 107.438 128.723 108.148 127.812 108.681C126.9 109.215 125.774 109.482 124.433 109.482C123.078 109.482 121.939 109.215 121.015 108.681C120.103 108.148 119.413 107.438 118.944 106.552C118.476 105.667 118.241 104.697 118.241 103.642ZM121.972 102.138V103.642C121.972 104.098 122.056 104.534 122.226 104.951C122.408 105.355 122.681 105.687 123.046 105.947C123.41 106.194 123.873 106.318 124.433 106.318C124.979 106.318 125.429 106.194 125.78 105.947C126.132 105.687 126.392 105.355 126.562 104.951C126.731 104.534 126.815 104.098 126.815 103.642V102.138C126.815 101.657 126.724 101.214 126.542 100.81C126.373 100.394 126.106 100.062 125.741 99.8142C125.39 99.5538 124.94 99.4236 124.394 99.4236C123.847 99.4236 123.391 99.5538 123.026 99.8142C122.675 100.062 122.408 100.394 122.226 100.81C122.056 101.214 121.972 101.657 121.972 102.138ZM131.835 119.658V118.135C131.835 117.067 132.069 116.09 132.538 115.205C133.02 114.319 133.716 113.61 134.628 113.076C135.552 112.542 136.685 112.275 138.026 112.275C139.381 112.275 140.513 112.542 141.425 113.076C142.336 113.61 143.026 114.319 143.495 115.205C143.964 116.09 144.198 117.067 144.198 118.135V119.658C144.198 120.726 143.964 121.702 143.495 122.588C143.039 123.46 142.356 124.163 141.444 124.697C140.533 125.231 139.407 125.498 138.065 125.498C136.711 125.498 135.572 125.231 134.647 124.697C133.723 124.163 133.02 123.454 132.538 122.568C132.069 121.683 131.835 120.713 131.835 119.658ZM135.585 118.135V119.638C135.585 120.107 135.689 120.55 135.897 120.967C136.106 121.383 136.392 121.715 136.757 121.963C137.134 122.21 137.571 122.334 138.065 122.334C138.69 122.334 139.179 122.21 139.53 121.963C139.882 121.715 140.123 121.383 140.253 120.967C140.396 120.55 140.468 120.107 140.468 119.638V118.135C140.468 117.431 140.266 116.806 139.862 116.26C139.459 115.713 138.847 115.439 138.026 115.439C137.206 115.439 136.594 115.713 136.19 116.26C135.787 116.806 135.585 117.431 135.585 118.135ZM139.413 100.732L125.526 122.959L122.792 121.513L136.679 99.2869L139.413 100.732Z" fill="#5A5D61"/>
<defs>
<linearGradient id="paint0_linear_11515_8380" x1="107.5" y1="0.863525" x2="107.5" y2="215.864" gradientUnits="userSpaceOnUse">
<stop stop-color="#D6ECFD" stop-opacity="0"/>
<stop offset="1" stop-color="#41AD4A"/>
</linearGradient>
</defs>
</svg>
