<svg width="32" height="32" viewBox="0 0 32 32" fill="none" xmlns="http://www.w3.org/2000/svg">
<path d="M22.6528 12.9463H9.34619C8.79952 12.9463 8.34619 12.493 8.34619 11.9463C8.34619 11.3996 8.79952 10.9463 9.34619 10.9463H22.6528C23.1995 10.9463 23.6528 11.3996 23.6528 11.9463C23.6528 12.493 23.1995 12.9463 22.6528 12.9463Z" fill="#41AD4A"/>
<path d="M16 12.947C15.4533 12.947 15 12.4937 15 11.947V9.70703C15 9.16036 15.4533 8.70703 16 8.70703C16.5467 8.70703 17 9.16036 17 9.70703V11.947C17 12.4937 16.5467 12.947 16 12.947Z" fill="#41AD4A"/>
<path d="M9.3335 23.2932C8.78683 23.2932 8.3335 22.8399 8.3335 22.2932C8.3335 21.7465 8.78683 21.2932 9.3335 21.2932C14.2935 21.2932 18.3335 17.0933 18.3335 11.9199C18.3335 11.3733 18.7868 10.9199 19.3335 10.9199C19.8802 10.9199 20.3335 11.3733 20.3335 11.9199C20.3335 18.1999 15.4002 23.2932 9.3335 23.2932Z" fill="#41AD4A"/>
<path d="M22.667 23.2932C20.0403 23.2932 17.6003 21.9865 15.8136 19.5999C15.4803 19.1599 15.5737 18.5332 16.0137 18.1999C16.4537 17.8666 17.0803 17.9598 17.4136 18.3998C18.827 20.2665 20.6937 21.2932 22.6803 21.2932C23.227 21.2932 23.6803 21.7465 23.6803 22.2932C23.6803 22.8398 23.2137 23.2932 22.667 23.2932Z" fill="#41AD4A"/>
<path d="M19.9998 30.3332H11.9998C4.75984 30.3332 1.6665 27.2398 1.6665 19.9998V11.9998C1.6665 4.75984 4.75984 1.6665 11.9998 1.6665H19.9998C27.2398 1.6665 30.3332 4.75984 30.3332 11.9998V19.9998C30.3332 27.2398 27.2398 30.3332 19.9998 30.3332ZM11.9998 3.6665C5.85317 3.6665 3.6665 5.85317 3.6665 11.9998V19.9998C3.6665 26.1465 5.85317 28.3332 11.9998 28.3332H19.9998C26.1465 28.3332 28.3332 26.1465 28.3332 19.9998V11.9998C28.3332 5.85317 26.1465 3.6665 19.9998 3.6665H11.9998Z" fill="#41AD4A"/>
</svg>
