<svg width="25" height="24" viewBox="0 0 25 24" fill="none" xmlns="http://www.w3.org/2000/svg">
<path d="M15.74 22.27H15.61C11.17 22.27 9.03002 20.52 8.66002 16.6C8.62002 16.19 8.92002 15.82 9.34002 15.78C9.74002 15.74 10.12 16.05 10.16 16.46C10.45 19.6 11.93 20.77 15.62 20.77H15.75C19.82 20.77 21.26 19.33 21.26 15.26V8.73998C21.26 4.66998 19.82 3.22998 15.75 3.22998H15.62C11.91 3.22998 10.43 4.41998 10.16 7.61998C10.11 8.02998 9.76002 8.33998 9.34002 8.29998C8.92002 8.26998 8.62001 7.89998 8.65001 7.48998C8.99001 3.50998 11.14 1.72998 15.61 1.72998H15.74C20.65 1.72998 22.75 3.82998 22.75 8.73998V15.26C22.75 20.17 20.65 22.27 15.74 22.27Z" fill="white"/>
<path d="M15.5001 12.75H4.12012C3.71012 12.75 3.37012 12.41 3.37012 12C3.37012 11.59 3.71012 11.25 4.12012 11.25H15.5001C15.9101 11.25 16.2501 11.59 16.2501 12C16.2501 12.41 15.9101 12.75 15.5001 12.75Z" fill="white"/>
<path d="M6.34994 16.0998C6.15994 16.0998 5.96994 16.0298 5.81994 15.8798L2.46994 12.5298C2.17994 12.2398 2.17994 11.7598 2.46994 11.4698L5.81994 8.11984C6.10994 7.82984 6.58994 7.82984 6.87994 8.11984C7.16994 8.40984 7.16994 8.88984 6.87994 9.17984L4.05994 11.9998L6.87994 14.8198C7.16994 15.1098 7.16994 15.5898 6.87994 15.8798C6.73994 16.0298 6.53994 16.0998 6.34994 16.0998Z" fill="white"/>
</svg>
