<svg width="56" height="34" viewBox="0 0 56 34" fill="none" xmlns="http://www.w3.org/2000/svg">
<path fill-rule="evenodd" clip-rule="evenodd" d="M27.9383 29.7886C25.0479 32.2251 21.2984 33.6959 17.2013 33.6959C8.05941 33.6959 0.648438 26.3731 0.648438 17.34C0.648438 8.30691 8.05941 0.984131 17.2013 0.984131C21.2984 0.984131 25.0479 2.45495 27.9383 4.89138C30.8288 2.45495 34.5783 0.984131 38.6754 0.984131C47.8173 0.984131 55.2282 8.30691 55.2282 17.34C55.2282 26.3731 47.8173 33.6959 38.6754 33.6959C34.5783 33.6959 30.8288 32.2251 27.9383 29.7886Z" fill="#ED0006"/>
<path fill-rule="evenodd" clip-rule="evenodd" d="M27.9355 29.7892C31.495 26.7892 33.752 22.3251 33.752 17.34C33.752 12.355 31.495 7.89078 27.9355 4.89081C30.8259 2.45472 34.5751 0.984131 38.6719 0.984131C47.8138 0.984131 55.2248 8.30691 55.2248 17.34C55.2248 26.3731 47.8138 33.6959 38.6719 33.6959C34.5751 33.6959 30.8259 32.2253 27.9355 29.7892Z" fill="#F9A000"/>
<path fill-rule="evenodd" clip-rule="evenodd" d="M27.9379 29.7894C31.4969 26.7894 33.7537 22.3255 33.7537 17.3407C33.7537 12.356 31.4969 7.89206 27.9379 4.89209C24.3788 7.89206 22.1221 12.356 22.1221 17.3407C22.1221 22.3255 24.3788 26.7894 27.9379 29.7894Z" fill="#FF5E00"/>
</svg>
