<svg width="94" height="94" viewBox="0 0 94 94" fill="none" xmlns="http://www.w3.org/2000/svg">
<path d="M58.7336 88.9789H35.2666C14.029 88.9789 4.95508 79.905 4.95508 58.6674V35.2004C4.95508 13.9628 14.029 4.88892 35.2666 4.88892H58.7336C79.9712 4.88892 89.0451 13.9628 89.0451 35.2004V58.6674C89.0451 79.905 79.9712 88.9789 58.7336 88.9789ZM35.2666 10.7557C17.2361 10.7557 10.8218 17.17 10.8218 35.2004V58.6674C10.8218 76.6979 17.2361 83.1122 35.2666 83.1122H58.7336C76.764 83.1122 83.1783 76.6979 83.1783 58.6674V35.2004C83.1783 17.17 76.764 10.7557 58.7336 10.7557H35.2666Z" fill="#1FA9E2"/>
<path d="M42.1501 64.0258C40.5074 64.0258 38.982 63.6347 37.6131 62.8525C34.4842 61.0534 32.6851 57.3769 32.6851 52.7226V41.1455C32.6851 36.5304 34.4842 32.8148 37.6131 31.0156C40.7421 29.2165 44.8097 29.4903 48.8382 31.837L58.8899 37.6255C62.8792 39.9331 65.1868 43.3358 65.1868 46.9341C65.1868 50.5323 62.8792 53.935 58.8899 56.2426L48.8382 62.0311C46.5697 63.3609 44.2621 64.0258 42.1501 64.0258ZM42.1892 35.709C41.5634 35.709 41.0158 35.8263 40.5856 36.1001C39.334 36.8432 38.5909 38.6815 38.5909 41.1455V52.7226C38.5909 55.1866 39.2949 57.0249 40.5856 57.768C41.8372 58.5111 43.7928 58.1982 45.9439 56.9466L55.9956 51.1581C58.1467 49.9065 59.3592 48.3812 59.3592 46.9341C59.3592 45.4869 58.1467 43.9225 55.9956 42.71L45.9439 36.9215C44.5359 36.1001 43.2452 35.709 42.1892 35.709Z" fill="#1FA9E2"/>
</svg>
