<svg width="59" height="20" viewBox="0 0 59 20" fill="none" xmlns="http://www.w3.org/2000/svg">
<path fill-rule="evenodd" clip-rule="evenodd" d="M15.2414 19.4187H10.2132L6.44271 4.61081C6.26375 3.92965 5.88375 3.32747 5.32479 3.04365C3.92984 2.3304 2.3927 1.76277 0.71582 1.47648V0.90638H8.81584C9.93376 0.90638 10.7722 1.76277 10.9119 2.75736L12.8683 13.4388L17.894 0.90638H22.7825L15.2414 19.4187ZM25.5783 19.4187H20.8295L24.7398 0.90638H29.4885L25.5783 19.4187ZM35.6307 6.03491C35.7705 5.03785 36.6089 4.46774 37.5871 4.46774C39.1242 4.3246 40.7986 4.61089 42.196 5.32166L43.0345 1.33588C41.6371 0.765778 40.0999 0.479492 38.705 0.479492C34.096 0.479492 30.7423 3.04372 30.7423 6.60255C30.7423 9.30992 33.1178 10.7315 34.7947 11.5879C36.6089 12.4418 37.3076 13.0119 37.1679 13.8658C37.1679 15.1467 35.7705 15.7168 34.3755 15.7168C32.6986 15.7168 31.0217 15.2898 29.4871 14.5766L28.6486 18.5648C30.3255 19.2756 32.1397 19.5619 33.8165 19.5619C38.9845 19.7026 42.196 17.1408 42.196 13.2957C42.196 8.45353 35.6307 8.16971 35.6307 6.03491ZM58.8154 19.4187L55.0449 0.90638H50.9949C50.1564 0.90638 49.318 1.47648 49.0385 2.3304L42.0564 19.4187H46.9449L47.9206 16.7138H53.927L54.4859 19.4187H58.8154ZM51.6951 5.89259L53.09 12.8696H49.1798L51.6951 5.89259Z" fill="#172B85"/>
</svg>
