<svg width="36" height="37" viewBox="0 0 36 37" fill="none" xmlns="http://www.w3.org/2000/svg">
<path d="M17.9997 33.8756C16.7697 33.8756 15.5397 33.4856 14.5197 32.7206L6.70474 26.8706C5.24974 25.7756 4.37976 24.0356 4.37976 22.2206V3.14062H31.6197V22.2206C31.6197 24.0356 30.7497 25.7756 29.2947 26.8706L21.4798 32.7206C20.4598 33.4856 19.2297 33.8756 17.9997 33.8756ZM6.62976 5.37563V22.2056C6.62976 23.3156 7.16973 24.3806 8.05473 25.0556L15.8697 30.9056C17.1297 31.8506 18.8847 31.8506 20.1447 30.9056L27.9598 25.0556C28.8448 24.3806 29.3847 23.3156 29.3847 22.2056V5.37563H6.62976Z" fill="#12161C"/>
<path d="M33.0001 5.375H3.00012C2.38512 5.375 1.87512 4.865 1.87512 4.25C1.87512 3.635 2.38512 3.125 3.00012 3.125H33.0001C33.6151 3.125 34.1251 3.635 34.1251 4.25C34.1251 4.865 33.6151 5.375 33.0001 5.375Z" fill="#12161C"/>
<path d="M23.9998 13.625H11.9998C11.3848 13.625 10.8748 13.115 10.8748 12.5C10.8748 11.885 11.3848 11.375 11.9998 11.375H23.9998C24.6148 11.375 25.1248 11.885 25.1248 12.5C25.1248 13.115 24.6148 13.625 23.9998 13.625Z" fill="#12161C"/>
<path d="M23.9998 21.125H11.9998C11.3848 21.125 10.8748 20.615 10.8748 20C10.8748 19.385 11.3848 18.875 11.9998 18.875H23.9998C24.6148 18.875 25.1248 19.385 25.1248 20C25.1248 20.615 24.6148 21.125 23.9998 21.125Z" fill="#12161C"/>
</svg>
