<svg width="46" height="46" viewBox="0 0 46 46" fill="none" xmlns="http://www.w3.org/2000/svg">
<path d="M15.3335 11.0215C14.5477 11.0215 13.896 10.3698 13.896 9.58398V3.83398C13.896 3.04815 14.5477 2.39648 15.3335 2.39648C16.1193 2.39648 16.771 3.04815 16.771 3.83398V9.58398C16.771 10.3698 16.1193 11.0215 15.3335 11.0215Z" fill="#5A5D61"/>
<path d="M30.6665 11.0215C29.8807 11.0215 29.229 10.3698 29.229 9.58398V3.83398C29.229 3.04815 29.8807 2.39648 30.6665 2.39648C31.4523 2.39648 32.104 3.04815 32.104 3.83398V9.58398C32.104 10.3698 31.4523 11.0215 30.6665 11.0215Z" fill="#5A5D61"/>
<path d="M16.2917 27.7915C16.0425 27.7915 15.7933 27.734 15.5633 27.6381C15.3142 27.5423 15.1225 27.4081 14.9308 27.2356C14.5858 26.8714 14.375 26.3923 14.375 25.8748C14.375 25.6256 14.4325 25.3764 14.5283 25.1464C14.6242 24.9164 14.7583 24.7056 14.9308 24.514C15.1225 24.3415 15.3142 24.2073 15.5633 24.1114C16.2533 23.8239 17.1158 23.9773 17.6525 24.514C17.9975 24.8781 18.2083 25.3765 18.2083 25.8748C18.2083 25.9898 18.1892 26.124 18.17 26.2581C18.1508 26.3731 18.1125 26.4881 18.055 26.6031C18.0167 26.7181 17.9592 26.8331 17.8825 26.9481C17.825 27.0439 17.7292 27.1398 17.6525 27.2356C17.2883 27.5806 16.79 27.7915 16.2917 27.7915Z" fill="#5A5D61"/>
<path d="M23.0002 27.7922C22.751 27.7922 22.5018 27.7347 22.2718 27.6388C22.0227 27.543 21.831 27.4088 21.6393 27.2363C21.2943 26.8721 21.0835 26.393 21.0835 25.8755C21.0835 25.6263 21.141 25.3771 21.2368 25.1471C21.3327 24.9171 21.4668 24.7063 21.6393 24.5147C21.831 24.3422 22.0227 24.208 22.2718 24.1121C22.9618 23.8055 23.8243 23.978 24.361 24.5147C24.706 24.8788 24.9168 25.3772 24.9168 25.8755C24.9168 25.9905 24.8977 26.1247 24.8785 26.2588C24.8593 26.3738 24.821 26.4888 24.7635 26.6038C24.7252 26.7188 24.6677 26.8338 24.591 26.9488C24.5335 27.0447 24.4377 27.1405 24.361 27.2363C23.9968 27.5813 23.4985 27.7922 23.0002 27.7922Z" fill="#5A5D61"/>
<path d="M29.7082 27.7922C29.459 27.7922 29.2098 27.7347 28.9798 27.6388C28.7307 27.543 28.539 27.4088 28.3473 27.2363C28.2707 27.1405 28.194 27.0447 28.1173 26.9488C28.0407 26.8338 27.9832 26.7188 27.9448 26.6038C27.8873 26.4888 27.849 26.3738 27.8298 26.2588C27.8107 26.1247 27.7915 25.9905 27.7915 25.8755C27.7915 25.3772 28.0023 24.8788 28.3473 24.5147C28.539 24.3422 28.7307 24.208 28.9798 24.1121C29.689 23.8055 30.5323 23.978 31.069 24.5147C31.414 24.8788 31.6248 25.3772 31.6248 25.8755C31.6248 25.9905 31.6057 26.1247 31.5865 26.2588C31.5673 26.3738 31.529 26.4888 31.4715 26.6038C31.4332 26.7188 31.3757 26.8338 31.299 26.9488C31.2415 27.0447 31.1457 27.1405 31.069 27.2363C30.7048 27.5813 30.2065 27.7922 29.7082 27.7922Z" fill="#5A5D61"/>
<path d="M16.2917 34.5008C16.0425 34.5008 15.7933 34.4433 15.5633 34.3475C15.3333 34.2516 15.1225 34.1174 14.9308 33.9449C14.5858 33.5807 14.375 33.0824 14.375 32.5841C14.375 32.3349 14.4325 32.0858 14.5283 31.8558C14.6242 31.6066 14.7583 31.3958 14.9308 31.2233C15.64 30.5141 16.9433 30.5141 17.6525 31.2233C17.9975 31.5874 18.2083 32.0858 18.2083 32.5841C18.2083 33.0824 17.9975 33.5807 17.6525 33.9449C17.2883 34.2899 16.79 34.5008 16.2917 34.5008Z" fill="#5A5D61"/>
<path d="M23.0002 34.5008C22.5018 34.5008 22.0035 34.2899 21.6393 33.9449C21.2943 33.5807 21.0835 33.0824 21.0835 32.5841C21.0835 32.3349 21.141 32.0858 21.2368 31.8558C21.3327 31.6066 21.4668 31.3958 21.6393 31.2233C22.3485 30.5141 23.6518 30.5141 24.361 31.2233C24.5335 31.3958 24.6677 31.6066 24.7635 31.8558C24.8593 32.0858 24.9168 32.3349 24.9168 32.5841C24.9168 33.0824 24.706 33.5807 24.361 33.9449C23.9968 34.2899 23.4985 34.5008 23.0002 34.5008Z" fill="#5A5D61"/>
<path d="M29.7082 34.4991C29.2098 34.4991 28.7115 34.2883 28.3473 33.9433C28.1748 33.7708 28.0407 33.5599 27.9448 33.3108C27.849 33.0808 27.7915 32.8316 27.7915 32.5824C27.7915 32.3333 27.849 32.0841 27.9448 31.8541C28.0407 31.6049 28.1748 31.3941 28.3473 31.2216C28.7882 30.7808 29.459 30.5699 30.0723 30.7041C30.2065 30.7232 30.3215 30.7616 30.4365 30.8191C30.5515 30.8574 30.6665 30.915 30.7815 30.9916C30.8773 31.0491 30.9732 31.145 31.069 31.2216C31.414 31.5858 31.6248 32.0841 31.6248 32.5824C31.6248 33.0808 31.414 33.5791 31.069 33.9433C30.7048 34.2883 30.2065 34.4991 29.7082 34.4991Z" fill="#5A5D61"/>
<path d="M39.2918 18.8594H6.7085C5.92266 18.8594 5.271 18.2077 5.271 17.4219C5.271 16.636 5.92266 15.9844 6.7085 15.9844H39.2918C40.0777 15.9844 40.7293 16.636 40.7293 17.4219C40.7293 18.2077 40.0777 18.8594 39.2918 18.8594Z" fill="#5A5D61"/>
<path d="M30.6667 43.6048H15.3333C8.3375 43.6048 4.3125 39.5798 4.3125 32.584V16.2923C4.3125 9.29648 8.3375 5.27148 15.3333 5.27148H30.6667C37.6625 5.27148 41.6875 9.29648 41.6875 16.2923V32.584C41.6875 39.5798 37.6625 43.6048 30.6667 43.6048ZM15.3333 8.14648C9.85167 8.14648 7.1875 10.8107 7.1875 16.2923V32.584C7.1875 38.0657 9.85167 40.7298 15.3333 40.7298H30.6667C36.1483 40.7298 38.8125 38.0657 38.8125 32.584V16.2923C38.8125 10.8107 36.1483 8.14648 30.6667 8.14648H15.3333Z" fill="#5A5D61"/>
</svg>
