<svg width="32" height="32" viewBox="0 0 32 32" fill="none" xmlns="http://www.w3.org/2000/svg">
<path d="M9.33341 14.3327H6.66675C3.44008 14.3327 1.66675 12.5593 1.66675 9.33268V6.66602C1.66675 3.43935 3.44008 1.66602 6.66675 1.66602H9.33341C12.5601 1.66602 14.3334 3.43935 14.3334 6.66602V9.33268C14.3334 12.5593 12.5601 14.3327 9.33341 14.3327ZM6.66675 3.66602C4.56008 3.66602 3.66675 4.55935 3.66675 6.66602V9.33268C3.66675 11.4393 4.56008 12.3327 6.66675 12.3327H9.33341C11.4401 12.3327 12.3334 11.4393 12.3334 9.33268V6.66602C12.3334 4.55935 11.4401 3.66602 9.33341 3.66602H6.66675Z" fill="#12161C"/>
<path d="M25.3334 14.3327H22.6667C19.4401 14.3327 17.6667 12.5593 17.6667 9.33268V6.66602C17.6667 3.43935 19.4401 1.66602 22.6667 1.66602H25.3334C28.5601 1.66602 30.3334 3.43935 30.3334 6.66602V9.33268C30.3334 12.5593 28.5601 14.3327 25.3334 14.3327ZM22.6667 3.66602C20.5601 3.66602 19.6667 4.55935 19.6667 6.66602V9.33268C19.6667 11.4393 20.5601 12.3327 22.6667 12.3327H25.3334C27.4401 12.3327 28.3334 11.4393 28.3334 9.33268V6.66602C28.3334 4.55935 27.4401 3.66602 25.3334 3.66602H22.6667Z" fill="#12161C"/>
<path d="M25.3334 30.3327H22.6667C19.4401 30.3327 17.6667 28.5594 17.6667 25.3327V22.666C17.6667 19.4393 19.4401 17.666 22.6667 17.666H25.3334C28.5601 17.666 30.3334 19.4393 30.3334 22.666V25.3327C30.3334 28.5594 28.5601 30.3327 25.3334 30.3327ZM22.6667 19.666C20.5601 19.666 19.6667 20.5593 19.6667 22.666V25.3327C19.6667 27.4394 20.5601 28.3327 22.6667 28.3327H25.3334C27.4401 28.3327 28.3334 27.4394 28.3334 25.3327V22.666C28.3334 20.5593 27.4401 19.666 25.3334 19.666H22.6667Z" fill="#12161C"/>
<path d="M9.33341 30.3327H6.66675C3.44008 30.3327 1.66675 28.5594 1.66675 25.3327V22.666C1.66675 19.4393 3.44008 17.666 6.66675 17.666H9.33341C12.5601 17.666 14.3334 19.4393 14.3334 22.666V25.3327C14.3334 28.5594 12.5601 30.3327 9.33341 30.3327ZM6.66675 19.666C4.56008 19.666 3.66675 20.5593 3.66675 22.666V25.3327C3.66675 27.4394 4.56008 28.3327 6.66675 28.3327H9.33341C11.4401 28.3327 12.3334 27.4394 12.3334 25.3327V22.666C12.3334 20.5593 11.4401 19.666 9.33341 19.666H6.66675Z" fill="#12161C"/>
</svg>
