<svg width="592" height="46" viewBox="0 0 592 46" fill="none" xmlns="http://www.w3.org/2000/svg">
<path d="M15.3335 11.0215C14.5477 11.0215 13.896 10.3698 13.896 9.58398V3.83398C13.896 3.04815 14.5477 2.39648 15.3335 2.39648C16.1193 2.39648 16.771 3.04815 16.771 3.83398V9.58398C16.771 10.3698 16.1193 11.0215 15.3335 11.0215Z" fill="#5A5D61"/>
<path d="M30.6665 11.0215C29.8807 11.0215 29.229 10.3698 29.229 9.58398V3.83398C29.229 3.04815 29.8807 2.39648 30.6665 2.39648C31.4523 2.39648 32.104 3.04815 32.104 3.83398V9.58398C32.104 10.3698 31.4523 11.0215 30.6665 11.0215Z" fill="#5A5D61"/>
<path d="M16.2917 27.7915C16.0425 27.7915 15.7933 27.734 15.5633 27.6381C15.3142 27.5423 15.1225 27.4081 14.9308 27.2356C14.5858 26.8714 14.375 26.3923 14.375 25.8748C14.375 25.6256 14.4325 25.3764 14.5283 25.1464C14.6242 24.9164 14.7583 24.7056 14.9308 24.514C15.1225 24.3415 15.3142 24.2073 15.5633 24.1114C16.2533 23.8239 17.1158 23.9773 17.6525 24.514C17.9975 24.8781 18.2083 25.3765 18.2083 25.8748C18.2083 25.9898 18.1892 26.124 18.17 26.2581C18.1508 26.3731 18.1125 26.4881 18.055 26.6031C18.0167 26.7181 17.9592 26.8331 17.8825 26.9481C17.825 27.0439 17.7292 27.1398 17.6525 27.2356C17.2883 27.5806 16.79 27.7915 16.2917 27.7915Z" fill="#5A5D61"/>
<path d="M23.0002 27.7922C22.751 27.7922 22.5018 27.7347 22.2718 27.6388C22.0227 27.543 21.831 27.4088 21.6393 27.2363C21.2943 26.8721 21.0835 26.393 21.0835 25.8755C21.0835 25.6263 21.141 25.3771 21.2368 25.1471C21.3327 24.9171 21.4668 24.7063 21.6393 24.5147C21.831 24.3422 22.0227 24.208 22.2718 24.1121C22.9618 23.8055 23.8243 23.978 24.361 24.5147C24.706 24.8788 24.9168 25.3772 24.9168 25.8755C24.9168 25.9905 24.8977 26.1247 24.8785 26.2588C24.8593 26.3738 24.821 26.4888 24.7635 26.6038C24.7252 26.7188 24.6677 26.8338 24.591 26.9488C24.5335 27.0447 24.4377 27.1405 24.361 27.2363C23.9968 27.5813 23.4985 27.7922 23.0002 27.7922Z" fill="#5A5D61"/>
<path d="M29.7082 27.7922C29.459 27.7922 29.2098 27.7347 28.9798 27.6388C28.7307 27.543 28.539 27.4088 28.3473 27.2363C28.2707 27.1405 28.194 27.0447 28.1173 26.9488C28.0407 26.8338 27.9832 26.7188 27.9448 26.6038C27.8873 26.4888 27.849 26.3738 27.8298 26.2588C27.8107 26.1247 27.7915 25.9905 27.7915 25.8755C27.7915 25.3772 28.0023 24.8788 28.3473 24.5147C28.539 24.3422 28.7307 24.208 28.9798 24.1121C29.689 23.8055 30.5323 23.978 31.069 24.5147C31.414 24.8788 31.6248 25.3772 31.6248 25.8755C31.6248 25.9905 31.6057 26.1247 31.5865 26.2588C31.5673 26.3738 31.529 26.4888 31.4715 26.6038C31.4332 26.7188 31.3757 26.8338 31.299 26.9488C31.2415 27.0447 31.1457 27.1405 31.069 27.2363C30.7048 27.5813 30.2065 27.7922 29.7082 27.7922Z" fill="#5A5D61"/>
<path d="M16.2917 34.5008C16.0425 34.5008 15.7933 34.4433 15.5633 34.3475C15.3333 34.2516 15.1225 34.1174 14.9308 33.9449C14.5858 33.5807 14.375 33.0824 14.375 32.5841C14.375 32.3349 14.4325 32.0858 14.5283 31.8558C14.6242 31.6066 14.7583 31.3958 14.9308 31.2233C15.64 30.5141 16.9433 30.5141 17.6525 31.2233C17.9975 31.5874 18.2083 32.0858 18.2083 32.5841C18.2083 33.0824 17.9975 33.5807 17.6525 33.9449C17.2883 34.2899 16.79 34.5008 16.2917 34.5008Z" fill="#5A5D61"/>
<path d="M23.0002 34.5008C22.5018 34.5008 22.0035 34.2899 21.6393 33.9449C21.2943 33.5807 21.0835 33.0824 21.0835 32.5841C21.0835 32.3349 21.141 32.0858 21.2368 31.8558C21.3327 31.6066 21.4668 31.3958 21.6393 31.2233C22.3485 30.5141 23.6518 30.5141 24.361 31.2233C24.5335 31.3958 24.6677 31.6066 24.7635 31.8558C24.8593 32.0858 24.9168 32.3349 24.9168 32.5841C24.9168 33.0824 24.706 33.5807 24.361 33.9449C23.9968 34.2899 23.4985 34.5008 23.0002 34.5008Z" fill="#5A5D61"/>
<path d="M29.7082 34.4991C29.2098 34.4991 28.7115 34.2883 28.3473 33.9433C28.1748 33.7708 28.0407 33.5599 27.9448 33.3108C27.849 33.0808 27.7915 32.8316 27.7915 32.5824C27.7915 32.3333 27.849 32.0841 27.9448 31.8541C28.0407 31.6049 28.1748 31.3941 28.3473 31.2216C28.7882 30.7808 29.459 30.5699 30.0723 30.7041C30.2065 30.7232 30.3215 30.7616 30.4365 30.8191C30.5515 30.8574 30.6665 30.915 30.7815 30.9916C30.8773 31.0491 30.9732 31.145 31.069 31.2216C31.414 31.5858 31.6248 32.0841 31.6248 32.5824C31.6248 33.0808 31.414 33.5791 31.069 33.9433C30.7048 34.2883 30.2065 34.4991 29.7082 34.4991Z" fill="#5A5D61"/>
<path d="M39.2918 18.8594H6.7085C5.92266 18.8594 5.271 18.2077 5.271 17.4219C5.271 16.636 5.92266 15.9844 6.7085 15.9844H39.2918C40.0777 15.9844 40.7293 16.636 40.7293 17.4219C40.7293 18.2077 40.0777 18.8594 39.2918 18.8594Z" fill="#5A5D61"/>
<path d="M30.6667 43.6048H15.3333C8.3375 43.6048 4.3125 39.5798 4.3125 32.584V16.2923C4.3125 9.29648 8.3375 5.27148 15.3333 5.27148H30.6667C37.6625 5.27148 41.6875 9.29648 41.6875 16.2923V32.584C41.6875 39.5798 37.6625 43.6048 30.6667 43.6048ZM15.3333 8.14648C9.85167 8.14648 7.1875 10.8107 7.1875 16.2923V32.584C7.1875 38.0657 9.85167 40.7298 15.3333 40.7298H30.6667C36.1483 40.7298 38.8125 38.0657 38.8125 32.584V16.2923C38.8125 10.8107 36.1483 8.14648 30.6667 8.14648H15.3333Z" fill="#5A5D61"/>
<path d="M66.6304 11.7266V29.5H64.311V11.7266H66.6304ZM72.3433 11.7266V13.6553H58.6104V11.7266H72.3433ZM76.8965 10.75V29.5H74.6382V10.75H76.8965ZM76.3594 22.3955L75.4194 22.3589C75.4357 21.1463 75.6676 20.068 76.1152 19.124C76.5628 18.1719 77.1854 17.4232 77.9829 16.8779C78.7886 16.3245 79.7244 16.0479 80.7905 16.0479C81.6613 16.0479 82.41 16.2065 83.0366 16.5239C83.6714 16.8413 84.1597 17.354 84.5015 18.062C84.8514 18.7619 85.0264 19.6896 85.0264 20.8452V29.5H82.7559V20.8208C82.7559 20.1291 82.6541 19.5757 82.4507 19.1606C82.2472 18.7375 81.9502 18.4323 81.5596 18.2451C81.1689 18.0498 80.6888 17.9521 80.1191 17.9521C79.5576 17.9521 79.0449 18.0701 78.5811 18.3062C78.1253 18.5422 77.7306 18.8677 77.397 19.2827C77.0715 19.6978 76.8151 20.1738 76.6279 20.7109C76.4489 21.2399 76.3594 21.8014 76.3594 22.3955ZM93.8887 29.7441C92.6598 29.7441 91.5897 29.4715 90.6782 28.9263C89.7749 28.381 89.071 27.6283 88.5664 26.668C88.07 25.6995 87.8218 24.5968 87.8218 23.3599V22.8472C87.8218 21.4067 88.0944 20.182 88.6396 19.1729C89.193 18.1556 89.9092 17.3825 90.7881 16.8535C91.6751 16.3164 92.611 16.0479 93.5957 16.0479C94.8571 16.0479 95.8866 16.3327 96.6841 16.9023C97.4897 17.4639 98.0798 18.2329 98.4541 19.2095C98.8366 20.1779 99.0278 21.2806 99.0278 22.5176V23.5308H89.1646V21.6875H96.7695V21.5166C96.737 20.9307 96.6149 20.361 96.4033 19.8076C96.1999 19.2542 95.8743 18.7985 95.4268 18.4404C94.9792 18.0824 94.3688 17.9033 93.5957 17.9033C92.9121 17.9033 92.3058 18.0946 91.7769 18.4771C91.2479 18.8595 90.8328 19.4211 90.5317 20.1616C90.2388 20.894 90.0923 21.7892 90.0923 22.8472V23.3599C90.0923 24.1899 90.2469 24.9508 90.5562 25.6426C90.8654 26.3262 91.313 26.8755 91.8989 27.2905C92.4849 27.6974 93.1888 27.9009 94.0107 27.9009C94.8083 27.9009 95.4837 27.7381 96.0371 27.4126C96.5905 27.0871 97.0747 26.6517 97.4897 26.1064L98.8569 27.1929C98.4338 27.8439 97.8275 28.4339 97.0381 28.9629C96.2487 29.4837 95.1989 29.7441 93.8887 29.7441ZM116.936 16.292H118.986V29.2192C118.986 30.383 118.75 31.3758 118.278 32.1978C117.806 33.0197 117.147 33.6423 116.301 34.0654C115.463 34.4967 114.494 34.7124 113.396 34.7124C112.94 34.7124 112.403 34.6392 111.784 34.4927C111.174 34.3543 110.572 34.1143 109.978 33.7725C109.392 33.4388 108.899 32.9871 108.5 32.4175L109.685 31.0747C110.238 31.742 110.816 32.2059 111.418 32.4663C112.028 32.7267 112.631 32.8569 113.225 32.8569C114.291 32.8569 115.141 32.5558 115.776 31.9536C116.411 31.3595 116.728 30.4847 116.728 29.3291V19.1973L116.936 16.292ZM107.841 23.0425V22.7861C107.841 21.4434 108.053 20.2674 108.476 19.2583C108.899 18.241 109.497 17.4517 110.271 16.8901C111.052 16.3286 111.979 16.0479 113.054 16.0479C113.884 16.0479 114.608 16.1943 115.227 16.4873C115.853 16.7721 116.382 17.1912 116.813 17.7446C117.253 18.2899 117.599 18.9491 117.851 19.7222C118.103 20.4953 118.278 21.3701 118.376 22.3467V23.4697C118.254 24.7555 117.985 25.8704 117.57 26.8145C117.155 27.7503 116.573 28.4746 115.825 28.9873C115.076 29.4919 114.144 29.7441 113.029 29.7441C111.971 29.7441 111.052 29.4552 110.271 28.8774C109.497 28.2915 108.899 27.494 108.476 26.4849C108.053 25.4757 107.841 24.3283 107.841 23.0425ZM110.1 22.7861V23.0425C110.1 23.9132 110.218 24.7148 110.454 25.4473C110.698 26.1715 111.076 26.7493 111.589 27.1807C112.102 27.612 112.765 27.8276 113.579 27.8276C114.327 27.8276 114.946 27.6689 115.434 27.3516C115.922 27.0342 116.309 26.6151 116.594 26.0942C116.887 25.5734 117.115 25.0078 117.277 24.3975V21.4556C117.188 21.008 117.049 20.5767 116.862 20.1616C116.683 19.7384 116.447 19.3641 116.154 19.0386C115.869 18.7049 115.515 18.4404 115.092 18.2451C114.669 18.0498 114.173 17.9521 113.603 17.9521C112.781 17.9521 112.11 18.1719 111.589 18.6113C111.076 19.0508 110.698 19.6367 110.454 20.3691C110.218 21.1016 110.1 21.9072 110.1 22.7861ZM124.675 18.3672V29.5H122.417V16.292H124.614L124.675 18.3672ZM128.801 16.2188L128.789 18.3184C128.601 18.2777 128.422 18.2533 128.251 18.2451C128.089 18.2288 127.902 18.2207 127.69 18.2207C126.99 18.2207 126.404 18.3631 125.932 18.6479C125.46 18.9328 125.09 19.3234 124.821 19.8198C124.561 20.3081 124.398 20.8737 124.333 21.5166L123.698 21.8828C123.698 20.8249 123.841 19.8564 124.125 18.9775C124.41 18.0905 124.854 17.3825 125.456 16.8535C126.066 16.3164 126.848 16.0479 127.8 16.0479C127.963 16.0479 128.15 16.0682 128.361 16.1089C128.573 16.1414 128.719 16.1781 128.801 16.2188ZM130.046 23.0425V22.7617C130.046 21.484 130.29 20.3407 130.778 19.3315C131.267 18.3224 131.958 17.5249 132.854 16.939C133.749 16.3449 134.811 16.0479 136.04 16.0479C137.285 16.0479 138.355 16.3449 139.25 16.939C140.153 17.5249 140.849 18.3224 141.337 19.3315C141.826 20.3407 142.07 21.484 142.07 22.7617V23.0425C142.07 24.312 141.826 25.4554 141.337 26.4727C140.849 27.4818 140.157 28.2793 139.262 28.8652C138.367 29.4512 137.301 29.7441 136.064 29.7441C134.827 29.7441 133.757 29.4512 132.854 28.8652C131.958 28.2793 131.267 27.4818 130.778 26.4727C130.29 25.4554 130.046 24.312 130.046 23.0425ZM132.304 22.7617V23.0425C132.304 23.9132 132.443 24.7189 132.719 25.4595C132.996 26.1919 133.411 26.7819 133.964 27.2295C134.526 27.6689 135.226 27.8887 136.064 27.8887C136.894 27.8887 137.586 27.6689 138.139 27.2295C138.693 26.7819 139.108 26.1919 139.384 25.4595C139.661 24.7189 139.799 23.9132 139.799 23.0425V22.7617C139.799 21.8991 139.657 21.1016 139.372 20.3691C139.095 19.6286 138.68 19.0345 138.127 18.5869C137.574 18.1312 136.878 17.9033 136.04 17.9033C135.209 17.9033 134.518 18.1312 133.964 18.5869C133.411 19.0345 132.996 19.6286 132.719 20.3691C132.443 21.1016 132.304 21.8991 132.304 22.7617ZM152.983 26.4482V16.292H155.253V29.5H153.093L152.983 26.4482ZM153.41 23.665L154.35 23.6406C154.35 24.8125 154.183 25.8582 153.85 26.7778C153.516 27.6974 152.971 28.4217 152.214 28.9507C151.457 29.4797 150.448 29.7441 149.187 29.7441C147.893 29.7441 146.847 29.3617 146.049 28.5967C145.252 27.8317 144.853 26.5703 144.853 24.8125V16.292H147.111V24.8369C147.111 25.6263 147.225 26.2407 147.453 26.6802C147.689 27.1115 147.994 27.4126 148.369 27.5835C148.743 27.7463 149.134 27.8276 149.541 27.8276C150.501 27.8276 151.262 27.6445 151.823 27.2783C152.385 26.904 152.788 26.4035 153.032 25.7769C153.284 25.1421 153.41 24.4382 153.41 23.665ZM160.954 18.8311V34.5781H158.684V16.292H160.759L160.954 18.8311ZM169.853 22.7861V23.0425C169.853 24.3283 169.654 25.4757 169.255 26.4849C168.856 27.494 168.274 28.2915 167.509 28.8774C166.744 29.4552 165.817 29.7441 164.726 29.7441C163.603 29.7441 162.659 29.5 161.894 29.0117C161.129 28.5234 160.531 27.8276 160.1 26.9243C159.668 26.021 159.388 24.9508 159.257 23.7139V22.3467C159.388 21.0446 159.668 19.9256 160.1 18.9897C160.539 18.0457 161.137 17.3215 161.894 16.8169C162.651 16.3042 163.583 16.0479 164.689 16.0479C165.804 16.0479 166.744 16.3286 167.509 16.8901C168.274 17.4517 168.856 18.241 169.255 19.2583C169.654 20.2674 169.853 21.4434 169.853 22.7861ZM167.583 23.0425V22.7861C167.583 21.9072 167.456 21.1016 167.204 20.3691C166.96 19.6367 166.573 19.0508 166.044 18.6113C165.524 18.1719 164.852 17.9521 164.03 17.9521C163.461 17.9521 162.964 18.0498 162.541 18.2451C162.126 18.4404 161.772 18.7049 161.479 19.0386C161.186 19.3641 160.946 19.7384 160.759 20.1616C160.58 20.5767 160.445 21.008 160.356 21.4556V24.6172C160.519 25.1868 160.747 25.724 161.04 26.2285C161.333 26.7249 161.723 27.1278 162.211 27.437C162.7 27.7381 163.314 27.8887 164.055 27.8887C164.868 27.8887 165.536 27.6689 166.057 27.2295C166.577 26.7819 166.96 26.1919 167.204 25.4595C167.456 24.7189 167.583 23.9132 167.583 23.0425ZM182.792 27.1562L186.186 16.292H187.675L187.382 18.4526L183.928 29.5H182.475L182.792 27.1562ZM180.51 16.292L183.403 27.2783L183.61 29.5H182.084L178.251 16.292H180.51ZM190.922 27.1929L193.681 16.292H195.927L192.094 29.5H190.581L190.922 27.1929ZM188.005 16.292L191.325 26.9731L191.704 29.5H190.263L186.711 18.4282L186.418 16.292H188.005ZM206.035 27.2417V20.4424C206.035 19.6611 205.799 19.0386 205.327 18.5747C204.863 18.1027 204.171 17.8667 203.251 17.8667C202.682 17.8667 202.181 17.9644 201.75 18.1597C201.327 18.355 200.993 18.6113 200.749 18.9287C200.513 19.2461 200.395 19.5879 200.395 19.9541H198.137C198.137 19.3193 198.352 18.7049 198.784 18.1108C199.215 17.5086 199.821 17.0163 200.603 16.6338C201.392 16.2432 202.32 16.0479 203.386 16.0479C204.346 16.0479 205.192 16.2106 205.925 16.5361C206.665 16.8617 207.243 17.354 207.658 18.0132C208.081 18.6642 208.293 19.4821 208.293 20.4668V26.6191C208.293 27.0586 208.33 27.5265 208.403 28.0229C208.484 28.5194 208.602 28.9466 208.757 29.3047V29.5H206.401C206.287 29.2396 206.197 28.8937 206.132 28.4624C206.067 28.0229 206.035 27.616 206.035 27.2417ZM206.425 21.4922L206.45 23.0791H204.167C202.873 23.0791 201.876 23.2826 201.176 23.6895C200.476 24.0882 200.126 24.6986 200.126 25.5205C200.126 26.1471 200.338 26.6802 200.761 27.1196C201.184 27.5509 201.815 27.7666 202.653 27.7666C203.345 27.7666 203.955 27.6201 204.484 27.3271C205.013 27.0342 205.432 26.6761 205.742 26.2529C206.059 25.8298 206.23 25.4188 206.254 25.02L207.219 26.1064C207.162 26.4482 207.007 26.8267 206.755 27.2417C206.503 27.6567 206.165 28.0555 205.742 28.438C205.327 28.8123 204.83 29.1257 204.252 29.3779C203.683 29.6221 203.04 29.7441 202.324 29.7441C201.429 29.7441 200.643 29.5692 199.968 29.2192C199.3 28.8693 198.78 28.4014 198.405 27.8154C198.039 27.2214 197.856 26.5581 197.856 25.8257C197.856 24.4097 198.393 23.3354 199.467 22.603C200.542 21.8625 201.986 21.4922 203.801 21.4922H206.425ZM219.536 25.9966C219.536 25.6711 219.462 25.37 219.316 25.0933C219.178 24.8084 218.889 24.5521 218.449 24.3242C218.018 24.0882 217.367 23.8848 216.496 23.7139C215.52 23.5104 214.673 23.25 213.957 22.9326C213.249 22.6152 212.7 22.2124 212.309 21.7241C211.927 21.2358 211.735 20.6296 211.735 19.9053C211.735 19.2054 211.935 18.5666 212.333 17.9888C212.74 17.4028 213.31 16.9349 214.042 16.585C214.783 16.2269 215.646 16.0479 216.63 16.0479C217.688 16.0479 218.592 16.235 219.34 16.6094C220.089 16.9837 220.663 17.4842 221.062 18.1108C221.46 18.7293 221.66 19.417 221.66 20.1738H219.401C219.401 19.6286 219.161 19.1159 218.681 18.6357C218.209 18.1475 217.526 17.9033 216.63 17.9033C216.004 17.9033 215.495 18.001 215.104 18.1963C214.722 18.3835 214.441 18.6235 214.262 18.9165C214.091 19.2095 214.006 19.5187 214.006 19.8442C214.006 20.1698 214.087 20.4505 214.25 20.6865C214.413 20.9225 214.71 21.1341 215.141 21.3213C215.581 21.5085 216.215 21.6956 217.045 21.8828C218.128 22.127 219.019 22.4199 219.719 22.7617C220.419 23.1035 220.939 23.5226 221.281 24.019C221.623 24.5155 221.794 25.1177 221.794 25.8257C221.794 26.5988 221.582 27.2824 221.159 27.8765C220.736 28.4624 220.142 28.9222 219.377 29.2559C218.612 29.5814 217.717 29.7441 216.691 29.7441C215.528 29.7441 214.543 29.5366 213.737 29.1216C212.932 28.7065 212.321 28.1694 211.906 27.5103C211.491 26.8511 211.284 26.1553 211.284 25.4229H213.554C213.587 26.0413 213.766 26.5337 214.091 26.8999C214.417 27.258 214.816 27.5143 215.288 27.6689C215.76 27.8154 216.228 27.8887 216.691 27.8887C217.31 27.8887 217.827 27.8073 218.242 27.6445C218.665 27.4818 218.986 27.258 219.206 26.9731C219.426 26.6883 219.536 26.3628 219.536 25.9966ZM236.955 29.7441C235.726 29.7441 234.656 29.4715 233.745 28.9263C232.841 28.381 232.137 27.6283 231.633 26.668C231.136 25.6995 230.888 24.5968 230.888 23.3599V22.8472C230.888 21.4067 231.161 20.182 231.706 19.1729C232.259 18.1556 232.976 17.3825 233.854 16.8535C234.742 16.3164 235.677 16.0479 236.662 16.0479C237.924 16.0479 238.953 16.3327 239.75 16.9023C240.556 17.4639 241.146 18.2329 241.521 19.2095C241.903 20.1779 242.094 21.2806 242.094 22.5176V23.5308H232.231V21.6875H239.836V21.5166C239.803 20.9307 239.681 20.361 239.47 19.8076C239.266 19.2542 238.941 18.7985 238.493 18.4404C238.046 18.0824 237.435 17.9033 236.662 17.9033C235.979 17.9033 235.372 18.0946 234.843 18.4771C234.314 18.8595 233.899 19.4211 233.598 20.1616C233.305 20.894 233.159 21.7892 233.159 22.8472V23.3599C233.159 24.1899 233.313 24.9508 233.623 25.6426C233.932 26.3262 234.379 26.8755 234.965 27.2905C235.551 27.6974 236.255 27.9009 237.077 27.9009C237.875 27.9009 238.55 27.7381 239.104 27.4126C239.657 27.0871 240.141 26.6517 240.556 26.1064L241.923 27.1929C241.5 27.8439 240.894 28.4339 240.104 28.9629C239.315 29.4837 238.265 29.7441 236.955 29.7441ZM252.421 25.9966C252.421 25.6711 252.348 25.37 252.202 25.0933C252.063 24.8084 251.774 24.5521 251.335 24.3242C250.904 24.0882 250.253 23.8848 249.382 23.7139C248.405 23.5104 247.559 23.25 246.843 22.9326C246.135 22.6152 245.585 22.2124 245.195 21.7241C244.812 21.2358 244.621 20.6296 244.621 19.9053C244.621 19.2054 244.82 18.5666 245.219 17.9888C245.626 17.4028 246.196 16.9349 246.928 16.585C247.669 16.2269 248.531 16.0479 249.516 16.0479C250.574 16.0479 251.477 16.235 252.226 16.6094C252.975 16.9837 253.549 17.4842 253.947 18.1108C254.346 18.7293 254.545 19.417 254.545 20.1738H252.287C252.287 19.6286 252.047 19.1159 251.567 18.6357C251.095 18.1475 250.411 17.9033 249.516 17.9033C248.889 17.9033 248.381 18.001 247.99 18.1963C247.608 18.3835 247.327 18.6235 247.148 18.9165C246.977 19.2095 246.892 19.5187 246.892 19.8442C246.892 20.1698 246.973 20.4505 247.136 20.6865C247.299 20.9225 247.596 21.1341 248.027 21.3213C248.466 21.5085 249.101 21.6956 249.931 21.8828C251.014 22.127 251.905 22.4199 252.604 22.7617C253.304 23.1035 253.825 23.5226 254.167 24.019C254.509 24.5155 254.68 25.1177 254.68 25.8257C254.68 26.5988 254.468 27.2824 254.045 27.8765C253.622 28.4624 253.028 28.9222 252.263 29.2559C251.498 29.5814 250.603 29.7441 249.577 29.7441C248.413 29.7441 247.429 29.5366 246.623 29.1216C245.817 28.7065 245.207 28.1694 244.792 27.5103C244.377 26.8511 244.169 26.1553 244.169 25.4229H246.44C246.472 26.0413 246.652 26.5337 246.977 26.8999C247.303 27.258 247.701 27.5143 248.173 27.6689C248.645 27.8154 249.113 27.8887 249.577 27.8887C250.196 27.8887 250.712 27.8073 251.127 27.6445C251.551 27.4818 251.872 27.258 252.092 26.9731C252.312 26.6883 252.421 26.3628 252.421 25.9966ZM263.176 16.292V18.0254H256.035V16.292H263.176ZM258.452 13.0815H260.71V26.2285C260.71 26.6761 260.779 27.0138 260.917 27.2417C261.056 27.4696 261.235 27.6201 261.455 27.6934C261.674 27.7666 261.91 27.8032 262.163 27.8032C262.35 27.8032 262.545 27.7869 262.749 27.7544C262.96 27.7137 263.119 27.6812 263.225 27.6567L263.237 29.5C263.058 29.557 262.822 29.6099 262.529 29.6587C262.244 29.7157 261.898 29.7441 261.491 29.7441C260.938 29.7441 260.429 29.6343 259.965 29.4146C259.501 29.1948 259.131 28.8286 258.854 28.3159C258.586 27.7951 258.452 27.0952 258.452 26.2163V13.0815ZM273.613 27.2417V20.4424C273.613 19.6611 273.377 19.0386 272.905 18.5747C272.441 18.1027 271.749 17.8667 270.83 17.8667C270.26 17.8667 269.759 17.9644 269.328 18.1597C268.905 18.355 268.571 18.6113 268.327 18.9287C268.091 19.2461 267.973 19.5879 267.973 19.9541H265.715C265.715 19.3193 265.931 18.7049 266.362 18.1108C266.793 17.5086 267.399 17.0163 268.181 16.6338C268.97 16.2432 269.898 16.0479 270.964 16.0479C271.924 16.0479 272.771 16.2106 273.503 16.5361C274.243 16.8617 274.821 17.354 275.236 18.0132C275.66 18.6642 275.871 19.4821 275.871 20.4668V26.6191C275.871 27.0586 275.908 27.5265 275.981 28.0229C276.062 28.5194 276.18 28.9466 276.335 29.3047V29.5H273.979C273.865 29.2396 273.776 28.8937 273.71 28.4624C273.645 28.0229 273.613 27.616 273.613 27.2417ZM274.003 21.4922L274.028 23.0791H271.745C270.451 23.0791 269.454 23.2826 268.754 23.6895C268.055 24.0882 267.705 24.6986 267.705 25.5205C267.705 26.1471 267.916 26.6802 268.339 27.1196C268.763 27.5509 269.393 27.7666 270.231 27.7666C270.923 27.7666 271.534 27.6201 272.062 27.3271C272.591 27.0342 273.011 26.6761 273.32 26.2529C273.637 25.8298 273.808 25.4188 273.833 25.02L274.797 26.1064C274.74 26.4482 274.585 26.8267 274.333 27.2417C274.081 27.6567 273.743 28.0555 273.32 28.438C272.905 28.8123 272.408 29.1257 271.831 29.3779C271.261 29.6221 270.618 29.7441 269.902 29.7441C269.007 29.7441 268.221 29.5692 267.546 29.2192C266.879 28.8693 266.358 28.4014 265.983 27.8154C265.617 27.2214 265.434 26.5581 265.434 25.8257C265.434 24.4097 265.971 23.3354 267.045 22.603C268.12 21.8625 269.564 21.4922 271.379 21.4922H274.003ZM279.411 10.75H281.682V26.9365L281.486 29.5H279.411V10.75ZM290.605 22.7861V23.0425C290.605 24.3283 290.402 25.4757 289.995 26.4849C289.596 27.494 289.014 28.2915 288.249 28.8774C287.484 29.4552 286.556 29.7441 285.466 29.7441C284.351 29.7441 283.419 29.4919 282.67 28.9873C281.922 28.4746 281.34 27.7503 280.925 26.8145C280.51 25.8704 280.237 24.7555 280.107 23.4697V22.3467C280.237 21.0446 280.51 19.9256 280.925 18.9897C281.34 18.0457 281.918 17.3215 282.658 16.8169C283.407 16.3042 284.335 16.0479 285.441 16.0479C286.548 16.0479 287.484 16.3286 288.249 16.8901C289.022 17.4517 289.608 18.241 290.007 19.2583C290.406 20.2674 290.605 21.4434 290.605 22.7861ZM288.334 23.0425V22.7861C288.334 21.9072 288.225 21.1016 288.005 20.3691C287.785 19.6367 287.423 19.0508 286.918 18.6113C286.414 18.1719 285.734 17.9521 284.88 17.9521C284.31 17.9521 283.814 18.0498 283.391 18.2451C282.976 18.4404 282.622 18.7049 282.329 19.0386C282.036 19.3641 281.796 19.7384 281.608 20.1616C281.429 20.5767 281.295 21.008 281.206 21.4556V24.3975C281.336 24.9671 281.547 25.5164 281.84 26.0454C282.141 26.5662 282.54 26.9935 283.037 27.3271C283.541 27.6608 284.164 27.8276 284.904 27.8276C285.718 27.8276 286.377 27.612 286.882 27.1807C287.386 26.7493 287.753 26.1715 287.98 25.4473C288.216 24.7148 288.334 23.9132 288.334 23.0425ZM295.915 10.75V29.5H293.645V10.75H295.915ZM301.994 16.292V29.5H299.724V16.292H301.994ZM299.553 12.7886C299.553 12.4224 299.663 12.1131 299.882 11.8608C300.11 11.6086 300.444 11.4824 300.883 11.4824C301.315 11.4824 301.644 11.6086 301.872 11.8608C302.108 12.1131 302.226 12.4224 302.226 12.7886C302.226 13.1385 302.108 13.4396 301.872 13.6919C301.644 13.936 301.315 14.0581 300.883 14.0581C300.444 14.0581 300.11 13.936 299.882 13.6919C299.663 13.4396 299.553 13.1385 299.553 12.7886ZM313.31 25.9966C313.31 25.6711 313.237 25.37 313.09 25.0933C312.952 24.8084 312.663 24.5521 312.224 24.3242C311.792 24.0882 311.141 23.8848 310.271 23.7139C309.294 23.5104 308.448 23.25 307.731 22.9326C307.023 22.6152 306.474 22.2124 306.083 21.7241C305.701 21.2358 305.51 20.6296 305.51 19.9053C305.51 19.2054 305.709 18.5666 306.108 17.9888C306.515 17.4028 307.084 16.9349 307.817 16.585C308.557 16.2269 309.42 16.0479 310.405 16.0479C311.463 16.0479 312.366 16.235 313.115 16.6094C313.863 16.9837 314.437 17.4842 314.836 18.1108C315.235 18.7293 315.434 19.417 315.434 20.1738H313.176C313.176 19.6286 312.936 19.1159 312.456 18.6357C311.984 18.1475 311.3 17.9033 310.405 17.9033C309.778 17.9033 309.27 18.001 308.879 18.1963C308.496 18.3835 308.216 18.6235 308.037 18.9165C307.866 19.2095 307.78 19.5187 307.78 19.8442C307.78 20.1698 307.862 20.4505 308.024 20.6865C308.187 20.9225 308.484 21.1341 308.916 21.3213C309.355 21.5085 309.99 21.6956 310.82 21.8828C311.902 22.127 312.793 22.4199 313.493 22.7617C314.193 23.1035 314.714 23.5226 315.056 24.019C315.397 24.5155 315.568 25.1177 315.568 25.8257C315.568 26.5988 315.357 27.2824 314.934 27.8765C314.51 28.4624 313.916 28.9222 313.151 29.2559C312.386 29.5814 311.491 29.7441 310.466 29.7441C309.302 29.7441 308.317 29.5366 307.512 29.1216C306.706 28.7065 306.096 28.1694 305.681 27.5103C305.266 26.8511 305.058 26.1553 305.058 25.4229H307.329C307.361 26.0413 307.54 26.5337 307.866 26.8999C308.191 27.258 308.59 27.5143 309.062 27.6689C309.534 27.8154 310.002 27.8887 310.466 27.8887C311.084 27.8887 311.601 27.8073 312.016 27.6445C312.439 27.4818 312.761 27.258 312.98 26.9731C313.2 26.6883 313.31 26.3628 313.31 25.9966ZM320.793 10.75V29.5H318.535V10.75H320.793ZM320.256 22.3955L319.316 22.3589C319.332 21.1463 319.564 20.068 320.012 19.124C320.459 18.1719 321.082 17.4232 321.879 16.8779C322.685 16.3245 323.621 16.0479 324.687 16.0479C325.558 16.0479 326.306 16.2065 326.933 16.5239C327.568 16.8413 328.056 17.354 328.398 18.062C328.748 18.7619 328.923 19.6896 328.923 20.8452V29.5H326.652V20.8208C326.652 20.1291 326.551 19.5757 326.347 19.1606C326.144 18.7375 325.847 18.4323 325.456 18.2451C325.065 18.0498 324.585 17.9521 324.016 17.9521C323.454 17.9521 322.941 18.0701 322.478 18.3062C322.022 18.5422 321.627 18.8677 321.293 19.2827C320.968 19.6978 320.712 20.1738 320.524 20.7109C320.345 21.2399 320.256 21.8014 320.256 22.3955ZM337.785 29.7441C336.556 29.7441 335.486 29.4715 334.575 28.9263C333.671 28.381 332.967 27.6283 332.463 26.668C331.966 25.6995 331.718 24.5968 331.718 23.3599V22.8472C331.718 21.4067 331.991 20.182 332.536 19.1729C333.09 18.1556 333.806 17.3825 334.685 16.8535C335.572 16.3164 336.507 16.0479 337.492 16.0479C338.754 16.0479 339.783 16.3327 340.581 16.9023C341.386 17.4639 341.976 18.2329 342.351 19.2095C342.733 20.1779 342.924 21.2806 342.924 22.5176V23.5308H333.061V21.6875H340.666V21.5166C340.633 20.9307 340.511 20.361 340.3 19.8076C340.096 19.2542 339.771 18.7985 339.323 18.4404C338.876 18.0824 338.265 17.9033 337.492 17.9033C336.809 17.9033 336.202 18.0946 335.673 18.4771C335.144 18.8595 334.729 19.4211 334.428 20.1616C334.135 20.894 333.989 21.7892 333.989 22.8472V23.3599C333.989 24.1899 334.143 24.9508 334.453 25.6426C334.762 26.3262 335.209 26.8755 335.795 27.2905C336.381 27.6974 337.085 27.9009 337.907 27.9009C338.705 27.9009 339.38 27.7381 339.934 27.4126C340.487 27.0871 340.971 26.6517 341.386 26.1064L342.753 27.1929C342.33 27.8439 341.724 28.4339 340.935 28.9629C340.145 29.4837 339.095 29.7441 337.785 29.7441ZM353.886 26.9365V10.75H356.157V29.5H354.082L353.886 26.9365ZM345 23.0425V22.7861C345 21.4434 345.215 20.2674 345.646 19.2583C346.086 18.241 346.696 17.4517 347.478 16.8901C348.259 16.3286 349.174 16.0479 350.224 16.0479C351.331 16.0479 352.255 16.3042 352.995 16.8169C353.736 17.3215 354.313 18.0457 354.729 18.9897C355.152 19.9256 355.424 21.0446 355.546 22.3467V23.4697C355.424 24.7555 355.156 25.8704 354.741 26.8145C354.326 27.7503 353.744 28.4746 352.995 28.9873C352.246 29.4919 351.315 29.7441 350.2 29.7441C349.166 29.7441 348.259 29.4552 347.478 28.8774C346.696 28.2915 346.086 27.494 345.646 26.4849C345.215 25.4757 345 24.3283 345 23.0425ZM347.27 22.7861V23.0425C347.27 23.9132 347.392 24.7148 347.636 25.4473C347.88 26.1715 348.259 26.7493 348.771 27.1807C349.284 27.612 349.947 27.8276 350.761 27.8276C351.51 27.8276 352.124 27.6689 352.604 27.3516C353.093 27.0342 353.483 26.6151 353.776 26.0942C354.069 25.5734 354.297 25.0078 354.46 24.3975V21.4556C354.362 21.008 354.22 20.5767 354.033 20.1616C353.854 19.7384 353.618 19.3641 353.325 19.0386C353.04 18.7049 352.686 18.4404 352.263 18.2451C351.848 18.0498 351.355 17.9521 350.786 17.9521C349.964 17.9521 349.292 18.1719 348.771 18.6113C348.259 19.0508 347.88 19.6367 347.636 20.3691C347.392 21.1016 347.27 21.9072 347.27 22.7861ZM365.788 23.0425V22.7617C365.788 21.484 366.032 20.3407 366.521 19.3315C367.009 18.3224 367.701 17.5249 368.596 16.939C369.491 16.3449 370.553 16.0479 371.782 16.0479C373.027 16.0479 374.097 16.3449 374.992 16.939C375.896 17.5249 376.591 18.3224 377.08 19.3315C377.568 20.3407 377.812 21.484 377.812 22.7617V23.0425C377.812 24.312 377.568 25.4554 377.08 26.4727C376.591 27.4818 375.9 28.2793 375.004 28.8652C374.109 29.4512 373.043 29.7441 371.806 29.7441C370.569 29.7441 369.499 29.4512 368.596 28.8652C367.701 28.2793 367.009 27.4818 366.521 26.4727C366.032 25.4554 365.788 24.312 365.788 23.0425ZM368.046 22.7617V23.0425C368.046 23.9132 368.185 24.7189 368.461 25.4595C368.738 26.1919 369.153 26.7819 369.707 27.2295C370.268 27.6689 370.968 27.8887 371.806 27.8887C372.636 27.8887 373.328 27.6689 373.881 27.2295C374.435 26.7819 374.85 26.1919 375.126 25.4595C375.403 24.7189 375.542 23.9132 375.542 23.0425V22.7617C375.542 21.8991 375.399 21.1016 375.114 20.3691C374.838 19.6286 374.423 19.0345 373.869 18.5869C373.316 18.1312 372.62 17.9033 371.782 17.9033C370.952 17.9033 370.26 18.1312 369.707 18.5869C369.153 19.0345 368.738 19.6286 368.461 20.3691C368.185 21.1016 368.046 21.8991 368.046 22.7617ZM382.902 19.1118V29.5H380.644V16.292H382.78L382.902 19.1118ZM382.365 22.3955L381.425 22.3589C381.442 21.1463 381.674 20.068 382.121 19.124C382.569 18.1719 383.191 17.4232 383.989 16.8779C384.794 16.3245 385.73 16.0479 386.796 16.0479C387.667 16.0479 388.416 16.2065 389.042 16.5239C389.677 16.8413 390.166 17.354 390.507 18.062C390.857 18.7619 391.032 19.6896 391.032 20.8452V29.5H388.762V20.8208C388.762 20.1291 388.66 19.5757 388.457 19.1606C388.253 18.7375 387.956 18.4323 387.565 18.2451C387.175 18.0498 386.695 17.9521 386.125 17.9521C385.563 17.9521 385.051 18.0701 384.587 18.3062C384.131 18.5422 383.736 18.8677 383.403 19.2827C383.077 19.6978 382.821 20.1738 382.634 20.7109C382.455 21.2399 382.365 21.8014 382.365 22.3955ZM408.977 24.312V11.7266H411.32V24.312C411.32 25.4839 411.08 26.4727 410.6 27.2783C410.12 28.084 409.457 28.6984 408.61 29.1216C407.772 29.5366 406.808 29.7441 405.717 29.7441C404.627 29.7441 403.658 29.557 402.812 29.1826C401.966 28.8083 401.302 28.2386 400.822 27.4736C400.342 26.7087 400.102 25.7443 400.102 24.5806H402.458C402.458 25.7036 402.759 26.5256 403.361 27.0464C403.972 27.5672 404.757 27.8276 405.717 27.8276C406.336 27.8276 406.889 27.6974 407.377 27.437C407.874 27.1685 408.264 26.7738 408.549 26.2529C408.834 25.724 408.977 25.077 408.977 24.312ZM422.758 27.2417V20.4424C422.758 19.6611 422.522 19.0386 422.05 18.5747C421.586 18.1027 420.895 17.8667 419.975 17.8667C419.405 17.8667 418.905 17.9644 418.474 18.1597C418.05 18.355 417.717 18.6113 417.473 18.9287C417.237 19.2461 417.119 19.5879 417.119 19.9541H414.86C414.86 19.3193 415.076 18.7049 415.507 18.1108C415.939 17.5086 416.545 17.0163 417.326 16.6338C418.116 16.2432 419.043 16.0479 420.109 16.0479C421.07 16.0479 421.916 16.2106 422.648 16.5361C423.389 16.8617 423.967 17.354 424.382 18.0132C424.805 18.6642 425.017 19.4821 425.017 20.4668V26.6191C425.017 27.0586 425.053 27.5265 425.126 28.0229C425.208 28.5194 425.326 28.9466 425.48 29.3047V29.5H423.125C423.011 29.2396 422.921 28.8937 422.856 28.4624C422.791 28.0229 422.758 27.616 422.758 27.2417ZM423.149 21.4922L423.173 23.0791H420.891C419.597 23.0791 418.6 23.2826 417.9 23.6895C417.2 24.0882 416.85 24.6986 416.85 25.5205C416.85 26.1471 417.062 26.6802 417.485 27.1196C417.908 27.5509 418.539 27.7666 419.377 27.7666C420.069 27.7666 420.679 27.6201 421.208 27.3271C421.737 27.0342 422.156 26.6761 422.465 26.2529C422.783 25.8298 422.954 25.4188 422.978 25.02L423.942 26.1064C423.885 26.4482 423.731 26.8267 423.479 27.2417C423.226 27.6567 422.889 28.0555 422.465 28.438C422.05 28.8123 421.554 29.1257 420.976 29.3779C420.406 29.6221 419.764 29.7441 419.047 29.7441C418.152 29.7441 417.367 29.5692 416.691 29.2192C416.024 28.8693 415.503 28.4014 415.129 27.8154C414.763 27.2214 414.58 26.5581 414.58 25.8257C414.58 24.4097 415.117 23.3354 416.191 22.603C417.265 21.8625 418.71 21.4922 420.524 21.4922H423.149ZM430.827 19.1118V29.5H428.569V16.292H430.705L430.827 19.1118ZM430.29 22.3955L429.35 22.3589C429.366 21.1463 429.598 20.068 430.046 19.124C430.493 18.1719 431.116 17.4232 431.914 16.8779C432.719 16.3245 433.655 16.0479 434.721 16.0479C435.592 16.0479 436.341 16.2065 436.967 16.5239C437.602 16.8413 438.09 17.354 438.432 18.062C438.782 18.7619 438.957 19.6896 438.957 20.8452V29.5H436.687V20.8208C436.687 20.1291 436.585 19.5757 436.381 19.1606C436.178 18.7375 435.881 18.4323 435.49 18.2451C435.1 18.0498 434.619 17.9521 434.05 17.9521C433.488 17.9521 432.976 18.0701 432.512 18.3062C432.056 18.5422 431.661 18.8677 431.328 19.2827C431.002 19.6978 430.746 20.1738 430.559 20.7109C430.38 21.2399 430.29 21.8014 430.29 22.3955ZM450.468 26.4482V16.292H452.739V29.5H450.578L450.468 26.4482ZM450.896 23.665L451.835 23.6406C451.835 24.8125 451.669 25.8582 451.335 26.7778C451.001 27.6974 450.456 28.4217 449.699 28.9507C448.942 29.4797 447.933 29.7441 446.672 29.7441C445.378 29.7441 444.332 29.3617 443.535 28.5967C442.737 27.8317 442.338 26.5703 442.338 24.8125V16.292H444.597V24.8369C444.597 25.6263 444.711 26.2407 444.938 26.6802C445.174 27.1115 445.48 27.4126 445.854 27.5835C446.228 27.7463 446.619 27.8276 447.026 27.8276C447.986 27.8276 448.747 27.6445 449.309 27.2783C449.87 26.904 450.273 26.4035 450.517 25.7769C450.769 25.1421 450.896 24.4382 450.896 23.665ZM463.969 27.2417V20.4424C463.969 19.6611 463.733 19.0386 463.261 18.5747C462.797 18.1027 462.106 17.8667 461.186 17.8667C460.616 17.8667 460.116 17.9644 459.685 18.1597C459.261 18.355 458.928 18.6113 458.684 18.9287C458.448 19.2461 458.33 19.5879 458.33 19.9541H456.071C456.071 19.3193 456.287 18.7049 456.718 18.1108C457.15 17.5086 457.756 17.0163 458.537 16.6338C459.326 16.2432 460.254 16.0479 461.32 16.0479C462.281 16.0479 463.127 16.2106 463.859 16.5361C464.6 16.8617 465.178 17.354 465.593 18.0132C466.016 18.6642 466.228 19.4821 466.228 20.4668V26.6191C466.228 27.0586 466.264 27.5265 466.337 28.0229C466.419 28.5194 466.537 28.9466 466.691 29.3047V29.5H464.335C464.222 29.2396 464.132 28.8937 464.067 28.4624C464.002 28.0229 463.969 27.616 463.969 27.2417ZM464.36 21.4922L464.384 23.0791H462.102C460.808 23.0791 459.811 23.2826 459.111 23.6895C458.411 24.0882 458.061 24.6986 458.061 25.5205C458.061 26.1471 458.273 26.6802 458.696 27.1196C459.119 27.5509 459.75 27.7666 460.588 27.7666C461.28 27.7666 461.89 27.6201 462.419 27.3271C462.948 27.0342 463.367 26.6761 463.676 26.2529C463.994 25.8298 464.165 25.4188 464.189 25.02L465.153 26.1064C465.096 26.4482 464.942 26.8267 464.689 27.2417C464.437 27.6567 464.099 28.0555 463.676 28.438C463.261 28.8123 462.765 29.1257 462.187 29.3779C461.617 29.6221 460.974 29.7441 460.258 29.7441C459.363 29.7441 458.578 29.5692 457.902 29.2192C457.235 28.8693 456.714 28.4014 456.34 27.8154C455.974 27.2214 455.791 26.5581 455.791 25.8257C455.791 24.4097 456.328 23.3354 457.402 22.603C458.476 21.8625 459.921 21.4922 461.735 21.4922H464.36ZM472.038 18.3672V29.5H469.78V16.292H471.977L472.038 18.3672ZM476.164 16.2188L476.152 18.3184C475.965 18.2777 475.786 18.2533 475.615 18.2451C475.452 18.2288 475.265 18.2207 475.053 18.2207C474.353 18.2207 473.767 18.3631 473.295 18.6479C472.823 18.9328 472.453 19.3234 472.185 19.8198C471.924 20.3081 471.761 20.8737 471.696 21.5166L471.062 21.8828C471.062 20.8249 471.204 19.8564 471.489 18.9775C471.774 18.0905 472.217 17.3825 472.819 16.8535C473.43 16.3164 474.211 16.0479 475.163 16.0479C475.326 16.0479 475.513 16.0682 475.725 16.1089C475.936 16.1414 476.083 16.1781 476.164 16.2188ZM482.182 28.1328L485.856 16.292H488.273L482.976 31.5386C482.854 31.8641 482.691 32.214 482.487 32.5884C482.292 32.9709 482.04 33.333 481.73 33.6748C481.421 34.0166 481.047 34.2933 480.607 34.5049C480.176 34.7246 479.659 34.8345 479.057 34.8345C478.878 34.8345 478.65 34.8101 478.374 34.7612C478.097 34.7124 477.902 34.6717 477.788 34.6392L477.775 32.8081C477.84 32.8162 477.942 32.8244 478.081 32.8325C478.227 32.8488 478.329 32.8569 478.386 32.8569C479.159 32.8569 479.757 32.6982 480.18 32.3809C480.611 32.0716 480.965 31.5101 481.242 30.6963L482.182 28.1328ZM479.484 16.292L482.915 26.5459L483.5 28.9263L481.877 29.7563L477.019 16.292H479.484ZM500.078 19.5024H501.689C502.478 19.5024 503.129 19.3722 503.642 19.1118C504.163 18.8433 504.549 18.4811 504.802 18.0254C505.062 17.5615 505.192 17.0407 505.192 16.4629C505.192 15.7793 505.078 15.2056 504.851 14.7417C504.623 14.2778 504.281 13.9279 503.825 13.6919C503.369 13.4559 502.792 13.3379 502.092 13.3379C501.457 13.3379 500.896 13.464 500.407 13.7163C499.927 13.9604 499.549 14.3104 499.272 14.7661C499.003 15.2218 498.869 15.759 498.869 16.3774H496.611C496.611 15.4741 496.839 14.6522 497.294 13.9116C497.75 13.1711 498.389 12.5811 499.211 12.1416C500.041 11.7021 501.001 11.4824 502.092 11.4824C503.166 11.4824 504.106 11.6737 504.912 12.0562C505.717 12.4305 506.344 12.992 506.792 13.7407C507.239 14.4813 507.463 15.4049 507.463 16.5117C507.463 16.9593 507.357 17.4395 507.146 17.9521C506.942 18.4567 506.621 18.9287 506.181 19.3682C505.75 19.8076 505.188 20.1698 504.497 20.4546C503.805 20.7313 502.975 20.8696 502.006 20.8696H500.078V19.5024ZM500.078 21.3579V20.0029H502.006C503.138 20.0029 504.073 20.1372 504.814 20.4058C505.555 20.6743 506.136 21.0324 506.56 21.48C506.991 21.9276 507.292 22.4199 507.463 22.957C507.642 23.486 507.731 24.015 507.731 24.5439C507.731 25.6507 507.483 26.5907 506.987 27.3638C506.499 28.1369 505.831 28.7269 504.985 29.1338C504.139 29.5407 503.178 29.7441 502.104 29.7441C501.331 29.7441 500.603 29.6343 499.919 29.4146C499.243 29.1948 498.645 28.8774 498.125 28.4624C497.604 28.0392 497.197 27.5225 496.904 26.9121C496.611 26.2936 496.464 25.5897 496.464 24.8003H498.723C498.723 25.4188 498.857 25.96 499.125 26.4238C499.402 26.8877 499.793 27.2498 500.297 27.5103C500.81 27.7625 501.412 27.8887 502.104 27.8887C503.146 27.8887 503.964 27.616 504.558 27.0708C505.16 26.5256 505.461 25.6995 505.461 24.5928C505.461 23.8522 505.306 23.2459 504.997 22.7739C504.688 22.2938 504.248 21.9398 503.679 21.7119C503.117 21.4759 502.454 21.3579 501.689 21.3579H500.078ZM518.266 11.6289V29.5H516.008V14.4487L511.455 16.1089V14.0703L517.912 11.6289H518.266ZM527.202 26.8145V28.6333C527.202 29.3739 527.014 30.1551 526.64 30.9771C526.266 31.8071 525.741 32.4989 525.065 33.0522L523.784 32.1611C524.044 31.8031 524.264 31.4368 524.443 31.0625C524.622 30.6963 524.756 30.3138 524.846 29.915C524.943 29.5244 524.992 29.1094 524.992 28.6699V26.8145H527.202ZM548.198 27.6445V29.5H536.564V27.8765L542.387 21.3945C543.103 20.597 543.657 19.9215 544.047 19.3682C544.446 18.8066 544.723 18.3062 544.877 17.8667C545.04 17.4191 545.122 16.9634 545.122 16.4995C545.122 15.6287 544.853 14.8841 544.316 14.2656C543.779 13.6471 543.014 13.3379 542.021 13.3379C541.232 13.3379 540.572 13.4925 540.043 13.8018C539.523 14.1029 539.132 14.526 538.872 15.0713C538.611 15.6165 538.481 16.2432 538.481 16.9512H536.223C536.223 15.9502 536.442 15.0347 536.882 14.2046C537.321 13.3745 537.972 12.7153 538.835 12.2271C539.698 11.7306 540.76 11.4824 542.021 11.4824C543.697 11.4824 545.008 11.9178 545.952 12.7886C546.904 13.6593 547.38 14.8068 547.38 16.231C547.38 16.9308 547.229 17.6348 546.928 18.3428C546.627 19.0508 546.224 19.7547 545.72 20.4546C545.215 21.1463 544.658 21.8218 544.047 22.481L539.287 27.6445H548.198ZM561.772 19.1973V21.9072C561.772 23.8441 561.544 25.3862 561.088 26.5337C560.633 27.6812 559.986 28.5031 559.147 28.9995C558.309 29.4959 557.316 29.7441 556.169 29.7441C555.038 29.7441 554.049 29.4959 553.203 28.9995C552.356 28.5031 551.701 27.6812 551.237 26.5337C550.773 25.3862 550.542 23.8441 550.542 21.9072V19.1973C550.542 17.2604 550.769 15.7305 551.225 14.6074C551.689 13.4844 552.34 12.6828 553.178 12.2026C554.025 11.7225 555.013 11.4824 556.145 11.4824C557.292 11.4824 558.285 11.7225 559.123 12.2026C559.969 12.6828 560.62 13.4844 561.076 14.6074C561.54 15.7305 561.772 17.2604 561.772 19.1973ZM559.501 22.2734V18.8188C559.501 17.4842 559.375 16.4141 559.123 15.6084C558.871 14.8027 558.492 14.2209 557.988 13.8628C557.491 13.5047 556.877 13.3257 556.145 13.3257C555.428 13.3257 554.822 13.5047 554.326 13.8628C553.829 14.2209 553.451 14.8027 553.19 15.6084C552.938 16.4141 552.812 17.4842 552.812 18.8188V22.2734C552.812 23.5999 552.942 24.6782 553.203 25.5083C553.463 26.3302 553.841 26.9325 554.338 27.3149C554.842 27.6974 555.453 27.8887 556.169 27.8887C556.91 27.8887 557.524 27.6974 558.012 27.3149C558.509 26.9325 558.879 26.3302 559.123 25.5083C559.375 24.6782 559.501 23.5999 559.501 22.2734ZM576.323 27.6445V29.5H564.689V27.8765L570.512 21.3945C571.228 20.597 571.782 19.9215 572.172 19.3682C572.571 18.8066 572.848 18.3062 573.002 17.8667C573.165 17.4191 573.247 16.9634 573.247 16.4995C573.247 15.6287 572.978 14.8841 572.441 14.2656C571.904 13.6471 571.139 13.3379 570.146 13.3379C569.357 13.3379 568.697 13.4925 568.168 13.8018C567.648 14.1029 567.257 14.526 566.997 15.0713C566.736 15.6165 566.606 16.2432 566.606 16.9512H564.348C564.348 15.9502 564.567 15.0347 565.007 14.2046C565.446 13.3745 566.097 12.7153 566.96 12.2271C567.823 11.7306 568.885 11.4824 570.146 11.4824C571.822 11.4824 573.133 11.9178 574.077 12.7886C575.029 13.6593 575.505 14.8068 575.505 16.231C575.505 16.9308 575.354 17.6348 575.053 18.3428C574.752 19.0508 574.349 19.7547 573.845 20.4546C573.34 21.1463 572.783 21.8218 572.172 22.481L567.412 27.6445H576.323ZM582.036 19.5024H583.647C584.436 19.5024 585.087 19.3722 585.6 19.1118C586.121 18.8433 586.507 18.4811 586.76 18.0254C587.02 17.5615 587.15 17.0407 587.15 16.4629C587.15 15.7793 587.036 15.2056 586.809 14.7417C586.581 14.2778 586.239 13.9279 585.783 13.6919C585.327 13.4559 584.75 13.3379 584.05 13.3379C583.415 13.3379 582.854 13.464 582.365 13.7163C581.885 13.9604 581.507 14.3104 581.23 14.7661C580.961 15.2218 580.827 15.759 580.827 16.3774H578.569C578.569 15.4741 578.797 14.6522 579.252 13.9116C579.708 13.1711 580.347 12.5811 581.169 12.1416C581.999 11.7021 582.959 11.4824 584.05 11.4824C585.124 11.4824 586.064 11.6737 586.87 12.0562C587.675 12.4305 588.302 12.992 588.75 13.7407C589.197 14.4813 589.421 15.4049 589.421 16.5117C589.421 16.9593 589.315 17.4395 589.104 17.9521C588.9 18.4567 588.579 18.9287 588.139 19.3682C587.708 19.8076 587.146 20.1698 586.455 20.4546C585.763 20.7313 584.933 20.8696 583.964 20.8696H582.036V19.5024ZM582.036 21.3579V20.0029H583.964C585.096 20.0029 586.031 20.1372 586.772 20.4058C587.513 20.6743 588.094 21.0324 588.518 21.48C588.949 21.9276 589.25 22.4199 589.421 22.957C589.6 23.486 589.689 24.015 589.689 24.5439C589.689 25.6507 589.441 26.5907 588.945 27.3638C588.457 28.1369 587.789 28.7269 586.943 29.1338C586.097 29.5407 585.136 29.7441 584.062 29.7441C583.289 29.7441 582.561 29.6343 581.877 29.4146C581.201 29.1948 580.603 28.8774 580.083 28.4624C579.562 28.0392 579.155 27.5225 578.862 26.9121C578.569 26.2936 578.422 25.5897 578.422 24.8003H580.681C580.681 25.4188 580.815 25.96 581.083 26.4238C581.36 26.8877 581.751 27.2498 582.255 27.5103C582.768 27.7625 583.37 27.8887 584.062 27.8887C585.104 27.8887 585.922 27.616 586.516 27.0708C587.118 26.5256 587.419 25.6995 587.419 24.5928C587.419 23.8522 587.264 23.2459 586.955 22.7739C586.646 22.2938 586.206 21.9398 585.637 21.7119C585.075 21.4759 584.412 21.3579 583.647 21.3579H582.036Z" fill="#5A5D61"/>
</svg>
