<svg width="25" height="25" viewBox="0 0 25 25" fill="none" xmlns="http://www.w3.org/2000/svg">
<path d="M9.25 11.625C7.73 11.625 6.5 10.395 6.5 8.875C6.5 7.355 7.73 6.125 9.25 6.125C10.77 6.125 12 7.355 12 8.875C12 10.395 10.77 11.625 9.25 11.625ZM9.25 7.625C8.56 7.625 8 8.185 8 8.875C8 9.565 8.56 10.125 9.25 10.125C9.94 10.125 10.5 9.565 10.5 8.875C10.5 8.185 9.94 7.625 9.25 7.625Z" fill="#41AD4A"/>
<path d="M15.25 23.625H9.25C3.82 23.625 1.5 21.305 1.5 15.875V9.875C1.5 4.445 3.82 2.125 9.25 2.125H13.25C13.66 2.125 14 2.465 14 2.875C14 3.285 13.66 3.625 13.25 3.625H9.25C4.64 3.625 3 5.265 3 9.875V15.875C3 20.485 4.64 22.125 9.25 22.125H15.25C19.86 22.125 21.5 20.485 21.5 15.875V10.875C21.5 10.465 21.84 10.125 22.25 10.125C22.66 10.125 23 10.465 23 10.875V15.875C23 21.305 20.68 23.625 15.25 23.625Z" fill="#41AD4A"/>
<path d="M15.9199 10.6245C15.5299 10.6245 15.1699 10.4845 14.9099 10.2145C14.5999 9.90445 14.4499 9.44445 14.5199 8.97445L14.7199 7.58445C14.7699 7.23445 14.9799 6.80445 15.2399 6.55445L18.8699 2.92445C20.3199 1.47445 21.5799 2.30445 22.1999 2.92445C22.7899 3.51445 23.0599 4.13445 22.9999 4.77445C22.9499 5.28445 22.6899 5.77445 22.1999 6.25445L18.5699 9.88445C18.3199 10.1345 17.8899 10.3444 17.5399 10.4045L16.1499 10.6045C16.0699 10.6245 15.9899 10.6245 15.9199 10.6245ZM19.9199 3.99445L16.2899 7.62445C16.2599 7.65445 16.2099 7.76445 16.1999 7.81445L16.0099 9.11445L17.3199 8.93445C17.3599 8.92445 17.4699 8.87445 17.5099 8.83445L21.1399 5.20445C21.3599 4.98445 21.4899 4.78445 21.4999 4.63445C21.5199 4.42445 21.3099 4.16445 21.1399 3.99445C20.6199 3.47445 20.3799 3.53445 19.9199 3.99445Z" fill="#41AD4A"/>
<path d="M21.15 7.00574C21.08 7.00574 21.01 6.99574 20.95 6.97574C19.61 6.59574 18.54 5.52574 18.16 4.18574C18.05 3.78574 18.28 3.37574 18.68 3.26574C19.08 3.15574 19.49 3.38574 19.6 3.78574C19.84 4.62574 20.51 5.30574 21.36 5.54574C21.76 5.65574 21.99 6.07574 21.88 6.46574C21.77 6.78574 21.47 7.00574 21.15 7.00574Z" fill="#41AD4A"/>
<path d="M2.92005 20.5755C2.68005 20.5755 2.44005 20.4555 2.30005 20.2455C2.07005 19.9055 2.16005 19.4355 2.50005 19.2055L7.43005 15.8955C8.51005 15.1755 10 15.2555 10.98 16.0855L11.31 16.3755C11.81 16.8055 12.66 16.8055 13.15 16.3755L17.31 12.8055C18.37 11.8955 20.0401 11.8955 21.1101 12.8055L22.74 14.2055C23.05 14.4755 23.09 14.9455 22.82 15.2655C22.55 15.5755 22.08 15.6155 21.76 15.3455L20.13 13.9455C19.63 13.5155 18.7801 13.5155 18.2901 13.9455L14.13 17.5155C13.07 18.4255 11.4 18.4255 10.33 17.5155L10 17.2255C9.54005 16.8355 8.78005 16.7955 8.27005 17.1455L3.35005 20.4555C3.21005 20.5355 3.06005 20.5755 2.92005 20.5755Z" fill="#41AD4A"/>
</svg>
