<svg width="32" height="32" viewBox="0 0 32 32" fill="none" xmlns="http://www.w3.org/2000/svg">
<path d="M16.0001 30.3327C8.09342 30.3327 1.66675 23.906 1.66675 15.9993C1.66675 8.09268 8.09342 1.66602 16.0001 1.66602C23.9067 1.66602 30.3334 8.09268 30.3334 15.9993C30.3334 23.906 23.9067 30.3327 16.0001 30.3327ZM16.0001 3.66602C9.20008 3.66602 3.66675 9.19935 3.66675 15.9993C3.66675 22.7993 9.20008 28.3327 16.0001 28.3327C22.8001 28.3327 28.3334 22.7993 28.3334 15.9993C28.3334 9.19935 22.8001 3.66602 16.0001 3.66602Z" fill="#12161C"/>
<path d="M12.0001 29H10.6667C10.1201 29 9.66674 28.5467 9.66674 28C9.66674 27.4533 10.0934 27.0133 10.6401 27C8.54673 19.8533 8.54673 12.1467 10.6401 5C10.0934 4.98667 9.66674 4.54667 9.66674 4C9.66674 3.45333 10.1201 3 10.6667 3H12.0001C12.3201 3 12.6267 3.16 12.8134 3.41333C13.0001 3.68 13.0534 4.01333 12.9467 4.32C10.4401 11.8533 10.4401 20.1467 12.9467 27.6933C13.0534 28 13.0001 28.3333 12.8134 28.6C12.6267 28.84 12.3201 29 12.0001 29Z" fill="#12161C"/>
<path d="M20 28.9996C19.8933 28.9996 19.7866 28.9863 19.68 28.9463C19.16 28.7729 18.8666 28.1996 19.0533 27.6796C21.56 20.1463 21.56 11.8529 19.0533 4.30626C18.88 3.78626 19.16 3.21292 19.68 3.03959C20.2133 2.86626 20.7733 3.14626 20.9466 3.66626C23.6 11.6129 23.6 20.3596 20.9466 28.2929C20.8133 28.7329 20.4133 28.9996 20 28.9996Z" fill="#12161C"/>
<path d="M16 22.9324C12.28 22.9324 8.57333 22.4124 5 21.3591C4.98667 21.8924 4.54667 22.3324 4 22.3324C3.45333 22.3324 3 21.8791 3 21.3324V19.9991C3 19.6791 3.16 19.3724 3.41333 19.1857C3.68 18.9991 4.01333 18.9457 4.32 19.0524C11.8533 21.5591 20.16 21.5591 27.6933 19.0524C28 18.9457 28.3333 18.9991 28.6 19.1857C28.8667 19.3724 29.0133 19.6791 29.0133 19.9991V21.3324C29.0133 21.8791 28.56 22.3324 28.0133 22.3324C27.4667 22.3324 27.0267 21.9057 27.0133 21.3591C23.4267 22.4124 19.72 22.9324 16 22.9324Z" fill="#12161C"/>
<path d="M28 12.9992C27.8934 12.9992 27.7867 12.9858 27.68 12.9458C20.1467 10.4392 11.84 10.4392 4.3067 12.9458C3.77337 13.1192 3.21337 12.8392 3.04004 12.3192C2.88004 11.7858 3.16004 11.2258 3.68004 11.0525C11.6267 8.39917 20.3734 8.39917 28.3067 11.0525C28.8267 11.2258 29.12 11.7992 28.9334 12.3192C28.8134 12.7325 28.4134 12.9992 28 12.9992Z" fill="#12161C"/>
</svg>
