<svg width="46" height="46" viewBox="0 0 46 46" fill="none" xmlns="http://www.w3.org/2000/svg">
<path d="M31.2034 42.3592H23.9201C22.8468 42.3592 20.5084 42.0334 19.2626 40.7876L13.4551 36.3026L15.2184 34.0217L21.1601 38.6217C21.6393 39.0817 22.8468 39.4651 23.9201 39.4651H31.2034C32.9284 39.4651 34.7876 38.0851 35.1709 36.5326L39.8093 22.4451C40.1159 21.6017 40.0584 20.8351 39.6559 20.2792C39.2343 19.6851 38.4676 19.3401 37.5284 19.3401H29.8618C28.8651 19.3401 27.9451 18.9184 27.3126 18.1901C26.6609 17.4426 26.3734 16.4459 26.5268 15.4109L27.4851 9.25842C27.7151 8.18508 26.9868 6.97758 25.9518 6.63258C25.0126 6.28758 23.8051 6.78592 23.3834 7.39925L15.5251 19.0909L13.1484 17.5001L21.0068 5.80842C22.2143 4.00675 24.8593 3.14425 26.9293 3.93008C29.3251 4.71592 30.8584 7.36092 30.3218 9.81425L29.3826 15.8517C29.3634 15.9859 29.3634 16.1776 29.4976 16.3309C29.5934 16.4267 29.7276 16.4842 29.8809 16.4842H37.5476C39.4259 16.4842 41.0551 17.2701 42.0134 18.6309C42.9526 19.9534 43.1443 21.6976 42.5309 23.3842L37.9501 37.3376C37.2409 40.1167 34.2893 42.3592 31.2034 42.3592Z" fill="#5A5D61"/>
<path d="M10.3115 40.2503H8.39486C4.84902 40.2503 3.12402 38.5828 3.12402 35.1711V16.3878C3.12402 12.9761 4.84902 11.3086 8.39486 11.3086H10.3115C13.8574 11.3086 15.5824 12.9761 15.5824 16.3878V35.1711C15.5824 38.5828 13.8574 40.2503 10.3115 40.2503ZM8.39486 14.1836C6.30569 14.1836 5.99902 14.6819 5.99902 16.3878V35.1711C5.99902 36.8769 6.30569 37.3753 8.39486 37.3753H10.3115C12.4007 37.3753 12.7074 36.8769 12.7074 35.1711V16.3878C12.7074 14.6819 12.4007 14.1836 10.3115 14.1836H8.39486Z" fill="#5A5D61"/>
</svg>
