<svg width="58" height="58" viewBox="0 0 58 58" fill="none" xmlns="http://www.w3.org/2000/svg">
<circle cx="29.5581" cy="29.5552" r="26.2118" fill="url(#paint0_linear_11536_11178)" stroke="white" stroke-width="4.46162"/>
<path d="M21.7169 28.3002C22.0045 28.3002 22.292 28.444 22.5317 28.6357C22.7234 28.8754 22.8672 29.1629 22.8672 29.4505V40.9531C22.8672 41.2886 22.7234 41.5762 22.5317 41.7679C22.292 42.0075 22.0045 42.1034 21.7169 42.1034H17.8827C17.5472 42.1034 17.2596 42.0075 17.0679 41.7679C16.8283 41.5762 16.7324 41.2886 16.7324 40.9531V29.4505C16.7324 29.1629 16.8283 28.8754 17.0679 28.6357C17.2596 28.444 17.5472 28.3002 17.8827 28.3002H21.7169ZM19.7998 40.1863C20.0874 40.1863 20.3749 40.0904 20.6146 39.8508C20.8063 39.6591 20.9501 39.3715 20.9501 39.036C20.9501 38.7485 20.8063 38.4609 20.6146 38.2212C20.3749 38.0295 20.0874 37.8858 19.7998 37.8858C19.4643 37.8858 19.1767 38.0295 18.985 38.2212C18.7454 38.4609 18.6495 38.7485 18.6495 39.036C18.6495 39.3715 18.7454 39.6591 18.985 39.8508C19.1767 40.0904 19.4643 40.1863 19.7998 40.1863ZM35.1366 21.4466C35.1366 19.9129 34.7053 18.8585 33.8426 18.1875C33.2674 17.8041 32.5485 17.5645 31.6858 17.5645C31.2545 17.5645 30.8711 17.9479 30.5835 18.6189C30.3918 19.0023 30.248 19.5774 30.0563 20.2963V20.3443C29.8646 21.0632 29.7208 21.5904 29.6249 21.8779C29.4332 22.4531 29.1457 22.8844 28.8581 23.172C28.3309 23.6513 27.7078 24.466 26.941 25.5684C25.9824 26.9103 25.2156 27.9168 24.5925 28.5878C24.4488 28.6837 24.4008 28.8274 24.4008 28.9712V39.2277C24.4008 39.4194 24.4488 39.5632 24.5446 39.6591C24.6405 39.7549 24.7843 39.8029 24.976 39.8029C25.5032 39.8029 26.3179 40.0904 27.4203 40.5697C28.5226 41.049 29.3853 41.3845 30.0563 41.5762C31.1107 41.9596 32.1651 42.1034 33.2195 42.1034H33.3633C34.7532 42.1034 35.8076 42.0555 36.4786 41.9117C37.5809 41.72 38.3478 41.3365 38.7791 40.7135C39.1625 40.1384 39.3063 39.4194 39.1146 38.5567C39.498 38.1254 39.7377 37.5503 39.9294 36.8793C40.0732 36.2083 40.0732 35.5852 39.8815 34.9622C40.2649 34.435 40.5045 33.8119 40.6004 33.093C40.6483 32.422 40.5524 31.751 40.3128 31.128H40.3607C40.6004 30.8404 40.7921 30.5049 40.9838 30.0736C41.1755 29.6901 41.2714 29.2588 41.2714 28.7795C41.2714 28.0606 40.9838 27.4375 40.4087 26.8624C39.8335 26.2873 39.1625 25.9997 38.3957 25.9997H33.555C33.6029 25.7121 33.7946 25.1849 34.1781 24.514C34.4656 23.9388 34.7053 23.5075 34.8491 23.172C35.0408 22.5969 35.1366 22.0217 35.1366 21.4466Z" fill="white"/>
<defs>
<linearGradient id="paint0_linear_11536_11178" x1="29.5581" y1="5.57422" x2="29.5581" y2="53.5362" gradientUnits="userSpaceOnUse">
<stop stop-color="#41AD4A" stop-opacity="0.5"/>
<stop offset="1" stop-color="#41AD4A"/>
</linearGradient>
</defs>
</svg>
