<svg width="46" height="46" viewBox="0 0 46 46" fill="none" xmlns="http://www.w3.org/2000/svg">
<path d="M14.8541 35.4577C7.99242 35.4577 2.39575 29.861 2.39575 22.9993C2.39575 16.1377 7.99242 10.541 14.8541 10.541C15.6399 10.541 16.2916 11.1927 16.2916 11.9785C16.2916 12.7643 15.6399 13.416 14.8541 13.416C9.56409 13.416 5.27075 17.7093 5.27075 22.9993C5.27075 28.2893 9.56409 32.5827 14.8541 32.5827C20.1441 32.5827 24.4374 28.2893 24.4374 22.9993C24.4374 22.2135 25.0891 21.5618 25.8749 21.5618C26.6608 21.5618 27.3124 22.2135 27.3124 22.9993C27.3124 29.861 21.7158 35.4577 14.8541 35.4577Z" fill="#5A5D61"/>
<path d="M30.6667 35.9375C29.8809 35.9375 29.2292 35.2858 29.2292 34.5C29.2292 33.7142 29.8809 33.0625 30.6667 33.0625C36.2059 33.0625 40.7292 28.5392 40.7292 23C40.7292 17.4608 36.2059 12.9375 30.6667 12.9375C25.1276 12.9375 20.6042 17.4608 20.6042 23C20.6042 23.7858 19.9526 24.4375 19.1667 24.4375C18.3809 24.4375 17.7292 23.7858 17.7292 23C17.7292 15.87 23.5367 10.0625 30.6667 10.0625C37.7968 10.0625 43.6042 15.87 43.6042 23C43.6042 30.13 37.7968 35.9375 30.6667 35.9375Z" fill="#5A5D61"/>
</svg>
