<svg width="46" height="46" viewBox="0 0 46 46" fill="none" xmlns="http://www.w3.org/2000/svg">
<path d="M22.9999 43.7198C21.6774 43.7198 20.4316 43.049 19.5499 41.8798L16.6749 38.0465C16.6174 37.9698 16.3874 37.874 16.2916 37.8548H15.3333C7.34075 37.8548 2.39575 35.689 2.39575 24.9173V15.334C2.39575 6.86232 6.86159 2.39648 15.3333 2.39648H30.6666C39.1383 2.39648 43.6041 6.86232 43.6041 15.334V24.9173C43.6041 33.389 39.1383 37.8548 30.6666 37.8548H29.7083C29.5549 37.8548 29.4208 37.9315 29.3249 38.0465L26.4499 41.8798C25.5683 43.049 24.3224 43.7198 22.9999 43.7198ZM15.3333 5.27148C8.47159 5.27148 5.27075 8.47232 5.27075 15.334V24.9173C5.27075 33.5807 8.24159 34.9798 15.3333 34.9798H16.2916C17.2691 34.9798 18.3808 35.5357 18.9749 36.3215L21.8499 40.1548C22.5208 41.0365 23.4791 41.0365 24.1499 40.1548L27.0249 36.3215C27.6574 35.4782 28.6541 34.9798 29.7083 34.9798H30.6666C37.5283 34.9798 40.7291 31.779 40.7291 24.9173V15.334C40.7291 8.47232 37.5283 5.27148 30.6666 5.27148H15.3333Z" fill="#5A5D61"/>
<path d="M32.5834 16.7715H13.4167C12.6309 16.7715 11.9792 16.1198 11.9792 15.334C11.9792 14.5482 12.6309 13.8965 13.4167 13.8965H32.5834C33.3692 13.8965 34.0209 14.5482 34.0209 15.334C34.0209 16.1198 33.3692 16.7715 32.5834 16.7715Z" fill="#5A5D61"/>
<path d="M24.9167 26.3535H13.4167C12.6309 26.3535 11.9792 25.7018 11.9792 24.916C11.9792 24.1302 12.6309 23.4785 13.4167 23.4785H24.9167C25.7026 23.4785 26.3542 24.1302 26.3542 24.916C26.3542 25.7018 25.7026 26.3535 24.9167 26.3535Z" fill="#5A5D61"/>
</svg>
