<svg width="36" height="36" viewBox="0 0 36 36" fill="none" xmlns="http://www.w3.org/2000/svg">
<path d="M12.0001 33.4801C11.5801 33.4801 11.1451 33.3751 10.7551 33.1651C9.9001 32.7151 9.37512 31.8151 9.37512 30.8551V28.7252C4.84512 28.2602 1.87512 24.9301 1.87512 20.1601V11.1602C1.87512 6.00016 5.34012 2.53516 10.5001 2.53516H25.5001C30.6601 2.53516 34.1251 6.00016 34.1251 11.1602V20.1601C34.1251 25.3201 30.6601 28.7851 25.5001 28.7851H19.8451L13.4551 33.0452C13.0201 33.3302 12.5101 33.4801 12.0001 33.4801ZM10.5001 4.77014C6.63012 4.77014 4.12512 7.27514 4.12512 11.1451V20.1452C4.12512 24.0152 6.63012 26.5202 10.5001 26.5202C11.1151 26.5202 11.6251 27.0302 11.6251 27.6452V30.8402C11.6251 31.0352 11.7451 31.1252 11.8201 31.1702C11.8951 31.2152 12.0451 31.2602 12.2101 31.1552L18.8852 26.7152C19.0652 26.5952 19.2901 26.5202 19.5151 26.5202H25.5151C29.3851 26.5202 31.8901 24.0152 31.8901 20.1452V11.1451C31.8901 7.27514 29.3851 4.77014 25.5151 4.77014H10.5001Z" fill="#12161C"/>
<path d="M17.9996 18.1641C17.3846 18.1641 16.8746 17.6541 16.8746 17.0391V16.7241C16.8746 14.9841 18.1496 14.1291 18.6296 13.7991C19.1846 13.4241 19.3646 13.1691 19.3646 12.7791C19.3646 12.0291 18.7496 11.4141 17.9996 11.4141C17.2496 11.4141 16.6346 12.0291 16.6346 12.7791C16.6346 13.3941 16.1246 13.9041 15.5096 13.9041C14.8946 13.9041 14.3846 13.3941 14.3846 12.7791C14.3846 10.7841 16.0046 9.16406 17.9996 9.16406C19.9946 9.16406 21.6146 10.7841 21.6146 12.7791C21.6146 14.4891 20.3546 15.3441 19.8896 15.6591C19.3046 16.0491 19.1246 16.3041 19.1246 16.7241V17.0391C19.1246 17.6691 18.6146 18.1641 17.9996 18.1641Z" fill="#12161C"/>
<path d="M17.9999 21.8984C17.3699 21.8984 16.8749 21.3884 16.8749 20.7734C16.8749 20.1584 17.3849 19.6484 17.9999 19.6484C18.6149 19.6484 19.1249 20.1584 19.1249 20.7734C19.1249 21.3884 18.6299 21.8984 17.9999 21.8984Z" fill="#12161C"/>
</svg>
