<svg width="24" height="24" viewBox="0 0 24 24" fill="none" xmlns="http://www.w3.org/2000/svg">
<path d="M5.41001 21.7492C4.29001 21.7492 3.58001 21.3692 3.13001 20.9192C2.25001 20.0392 1.63001 18.1692 3.61001 14.1992L4.48001 12.4692C4.59001 12.2392 4.59001 11.7592 4.48001 11.5292L3.61001 9.79917C1.62001 5.82917 2.25001 3.94917 3.13001 3.07917C4.00001 2.19917 5.88001 1.56917 9.84001 3.55917L18.4 7.83917C20.53 8.89917 21.7 10.3792 21.7 11.9992C21.7 13.6192 20.53 15.0992 18.41 16.1592L9.85001 20.4392C7.91001 21.4092 6.47001 21.7492 5.41001 21.7492ZM5.41001 3.74917C4.87001 3.74917 4.45001 3.87917 4.19001 4.13917C3.46001 4.85917 3.75001 6.72917 4.95001 9.11917L5.82001 10.8592C6.14001 11.5092 6.14001 12.4892 5.82001 13.1392L4.95001 14.8692C3.75001 17.2692 3.46001 19.1292 4.19001 19.8492C4.91001 20.5792 6.78001 20.2892 9.18001 19.0892L17.74 14.8092C19.31 14.0292 20.2 12.9992 20.2 11.9892C20.2 10.9792 19.3 9.94917 17.73 9.16917L9.17001 4.89917C7.65001 4.13917 6.34001 3.74917 5.41001 3.74917Z" fill="#41AD4A"/>
<path d="M10.84 12.75H5.44C5.03 12.75 4.69 12.41 4.69 12C4.69 11.59 5.03 11.25 5.44 11.25H10.84C11.25 11.25 11.59 11.59 11.59 12C11.59 12.41 11.25 12.75 10.84 12.75Z" fill="#41AD4A"/>
</svg>
