<svg width="46" height="46" viewBox="0 0 46 46" fill="none" xmlns="http://www.w3.org/2000/svg">
<path d="M23 30.1875C19.0325 30.1875 15.8125 26.9675 15.8125 23C15.8125 19.0325 19.0325 15.8125 23 15.8125C26.9675 15.8125 30.1875 19.0325 30.1875 23C30.1875 26.9675 26.9675 30.1875 23 30.1875ZM23 18.6875C20.6233 18.6875 18.6875 20.6233 18.6875 23C18.6875 25.3767 20.6233 27.3125 23 27.3125C25.3767 27.3125 27.3125 25.3767 27.3125 23C27.3125 20.6233 25.3767 18.6875 23 18.6875Z" fill="#12161C"/>
<path d="M29.1524 42.5301C28.7499 42.5301 28.3474 42.4726 27.9449 42.3768C26.7566 42.0509 25.7599 41.3034 25.1274 40.2492L24.8974 39.8659C23.7666 37.9109 22.2141 37.9109 21.0833 39.8659L20.8724 40.2301C20.2399 41.3034 19.2433 42.0701 18.0549 42.3768C16.8474 42.7026 15.6016 42.5301 14.5474 41.8976L11.2508 40.0001C10.0816 39.3293 9.23825 38.2367 8.87409 36.9142C8.52909 35.5917 8.70159 34.2309 9.37242 33.0617C9.92825 32.0842 10.0816 31.2026 9.75575 30.6467C9.42992 30.0909 8.60575 29.7651 7.47492 29.7651C4.67659 29.7651 2.39575 27.4842 2.39575 24.6859V21.3126C2.39575 18.5142 4.67659 16.2334 7.47492 16.2334C8.60575 16.2334 9.42992 15.9076 9.75575 15.3517C10.0816 14.7959 9.94742 13.9142 9.37242 12.9367C8.70159 11.7676 8.52909 10.3876 8.87409 9.08425C9.21909 7.76175 10.0624 6.66925 11.2508 5.99841L14.5666 4.10091C16.7324 2.81675 19.5883 3.56425 20.8916 5.76841L21.1216 6.15175C22.2524 8.10675 23.8049 8.10675 24.9358 6.15175L25.1466 5.78758C26.4499 3.56425 29.3058 2.81675 31.4908 4.12008L34.7874 6.01758C35.9566 6.68841 36.7999 7.78091 37.1641 9.10341C37.5091 10.4259 37.3366 11.7867 36.6658 12.9559C36.1099 13.9334 35.9566 14.8151 36.2824 15.3709C36.6083 15.9267 37.4324 16.2526 38.5633 16.2526C41.3616 16.2526 43.6424 18.5334 43.6424 21.3317V24.7051C43.6424 27.5034 41.3616 29.7842 38.5633 29.7842C37.4324 29.7842 36.6083 30.1101 36.2824 30.6659C35.9566 31.2217 36.0908 32.1034 36.6658 33.0809C37.3366 34.2501 37.5283 35.6301 37.1641 36.9334C36.8191 38.2559 35.9758 39.3484 34.7874 40.0192L31.4716 41.9167C30.7433 42.3192 29.9574 42.5301 29.1524 42.5301ZM22.9999 35.4384C24.7058 35.4384 26.2966 36.5117 27.3891 38.4092L27.5999 38.7734C27.8299 39.1759 28.2133 39.4634 28.6733 39.5784C29.1333 39.6934 29.5933 39.6359 29.9766 39.4059L33.2924 37.4892C33.7908 37.2017 34.1741 36.7226 34.3274 36.1476C34.4808 35.5726 34.4041 34.9784 34.1166 34.4801C33.0241 32.6017 32.8899 30.6659 33.7333 29.1901C34.5766 27.7142 36.3208 26.8709 38.5058 26.8709C39.7324 26.8709 40.7099 25.8934 40.7099 24.6667V21.2934C40.7099 20.0859 39.7324 19.0892 38.5058 19.0892C36.3208 19.0892 34.5766 18.2459 33.7333 16.7701C32.8899 15.2942 33.0241 13.3584 34.1166 11.4801C34.4041 10.9817 34.4808 10.3876 34.3274 9.81258C34.1741 9.23758 33.8099 8.77758 33.3116 8.47091L29.9958 6.57341C29.1716 6.07508 28.0791 6.36258 27.5808 7.20591L27.3699 7.57008C26.2774 9.46758 24.6866 10.5409 22.9808 10.5409C21.2749 10.5409 19.6841 9.46758 18.5916 7.57008L18.3808 7.18675C17.9016 6.38175 16.8283 6.09425 16.0041 6.57341L12.6883 8.49008C12.1899 8.77758 11.8066 9.25675 11.6533 9.83175C11.4999 10.4067 11.5766 11.0009 11.8641 11.4992C12.9566 13.3776 13.0908 15.3134 12.2474 16.7892C11.4041 18.2651 9.65992 19.1084 7.47492 19.1084C6.24825 19.1084 5.27075 20.0859 5.27075 21.3126V24.6859C5.27075 25.8934 6.24825 26.8901 7.47492 26.8901C9.65992 26.8901 11.4041 27.7334 12.2474 29.2092C13.0908 30.6851 12.9566 32.6209 11.8641 34.4992C11.5766 34.9976 11.4999 35.5918 11.6533 36.1667C11.8066 36.7417 12.1708 37.2017 12.6691 37.5084L15.9849 39.4059C16.3874 39.6551 16.8666 39.7126 17.3074 39.5976C17.7674 39.4826 18.1508 39.1759 18.3999 38.7734L18.6108 38.4092C19.7033 36.5309 21.2941 35.4384 22.9999 35.4384Z" fill="#12161C"/>
</svg>
