<svg width="36" height="36" viewBox="0 0 36 36" fill="none" xmlns="http://www.w3.org/2000/svg">
<path d="M31.5 11.625H4.5C3.885 11.625 3.375 11.115 3.375 10.5C3.375 9.885 3.885 9.375 4.5 9.375H31.5C32.115 9.375 32.625 9.885 32.625 10.5C32.625 11.115 32.115 11.625 31.5 11.625Z" fill="#12161C"/>
<path d="M27 19.125H9C8.385 19.125 7.875 18.615 7.875 18C7.875 17.385 8.385 16.875 9 16.875H27C27.615 16.875 28.125 17.385 28.125 18C28.125 18.615 27.615 19.125 27 19.125Z" fill="#12161C"/>
<path d="M21 26.625H15C14.385 26.625 13.875 26.115 13.875 25.5C13.875 24.885 14.385 24.375 15 24.375H21C21.615 24.375 22.125 24.885 22.125 25.5C22.125 26.115 21.615 26.625 21 26.625Z" fill="#292D32"/>
</svg>
