<svg width="25" height="24" viewBox="0 0 25 24" fill="none" xmlns="http://www.w3.org/2000/svg">
<path d="M12.5 12.75C9.33 12.75 6.75 10.17 6.75 7C6.75 3.83 9.33 1.25 12.5 1.25C15.67 1.25 18.25 3.83 18.25 7C18.25 10.17 15.67 12.75 12.5 12.75ZM12.5 2.75C10.16 2.75 8.25 4.66 8.25 7C8.25 9.34 10.16 11.25 12.5 11.25C14.84 11.25 16.75 9.34 16.75 7C16.75 4.66 14.84 2.75 12.5 2.75Z" fill="white"/>
<path d="M3.91016 22.75C3.50016 22.75 3.16016 22.41 3.16016 22C3.16016 17.73 7.35015 14.25 12.5002 14.25C13.5102 14.25 14.5001 14.38 15.4601 14.65C15.8601 14.76 16.0902 15.17 15.9802 15.57C15.8702 15.97 15.4601 16.2 15.0602 16.09C14.2402 15.86 13.3802 15.75 12.5002 15.75C8.18015 15.75 4.66016 18.55 4.66016 22C4.66016 22.41 4.32016 22.75 3.91016 22.75Z" fill="white"/>
<path d="M18.5 22.75C17.32 22.75 16.2 22.31 15.33 21.52C14.98 21.22 14.67 20.85 14.43 20.44C13.99 19.72 13.75 18.87 13.75 18C13.75 16.75 14.23 15.58 15.09 14.69C15.99 13.76 17.2 13.25 18.5 13.25C19.86 13.25 21.15 13.83 22.03 14.83C22.81 15.7 23.25 16.82 23.25 18C23.25 18.38 23.2 18.76 23.1 19.12C23 19.57 22.81 20.04 22.55 20.45C21.72 21.87 20.16 22.75 18.5 22.75ZM18.5 14.75C17.61 14.75 16.79 15.1 16.17 15.73C15.58 16.34 15.25 17.14 15.25 18C15.25 18.59 15.41 19.17 15.72 19.67C15.88 19.95 16.09 20.2 16.33 20.41C16.93 20.96 17.7 21.26 18.5 21.26C19.63 21.26 20.7 20.66 21.28 19.69C21.45 19.41 21.58 19.09 21.65 18.78C21.72 18.52 21.75 18.27 21.75 18.01C21.75 17.21 21.45 16.44 20.91 15.84C20.31 15.14 19.43 14.75 18.5 14.75Z" fill="white"/>
<path d="M19.9998 18.7305H17.0098C16.5998 18.7305 16.2598 18.3905 16.2598 17.9805C16.2598 17.5705 16.5998 17.2305 17.0098 17.2305H19.9998C20.4098 17.2305 20.7498 17.5705 20.7498 17.9805C20.7498 18.3905 20.4098 18.7305 19.9998 18.7305Z" fill="white"/>
<path d="M18.5 20.2595C18.09 20.2595 17.75 19.9195 17.75 19.5095V16.5195C17.75 16.1095 18.09 15.7695 18.5 15.7695C18.91 15.7695 19.25 16.1095 19.25 16.5195V19.5095C19.25 19.9295 18.91 20.2595 18.5 20.2595Z" fill="white"/>
</svg>
